<?xml version="1.0" encoding="utf-8"?>
<!-- Generator: Adobe Illustrator 27.5.0, SVG Export Plug-In . SVG Version: 6.00 Build 0)  -->
<svg version="1.1" xmlns="http://www.w3.org/2000/svg" xmlns:xlink="http://www.w3.org/1999/xlink" x="0px" y="0px"
	 viewBox="0 0 500 500" style="enable-background:new 0 0 500 500;" xml:space="preserve">
<g id="BACKGROUND">
	<rect style="fill:#FFFFFF;" width="500" height="500"/>
</g>
<g id="OBJECTS">
	<g>
		<g>
			<path style="fill:#E8E6F4;" d="M89.145,423.323c-25.65-41.976-47.344-87.263-55.406-135.791
				c-7.134-42.945-2.634-88,17.234-127.068c14.175-27.873,45.435-44.84,76.219-45.373c17.458-0.302,32.966,9.376,48.942,15.791
				c18.623,7.477,37.921,14.281,58.17,15.05c19.385,0.736,38.486-4.073,57.657-7.033c26.064-4.024,52.952-4.609,78.61,1.494
				c25.657,6.104,50.078,19.255,67.007,39.478c22.49,26.866,30.391,62.606,31.491,96.873c0.868,27.033,0.701,54.614-5.824,81.025
				c-6.654,26.933-18.208,50.563-32.554,74.433"/>
		</g>
		<g>
			<path style="fill:#E8E6F4;" d="M89.145,423.323c-25.65-41.976-47.344-87.263-55.406-135.791
				c-7.134-42.945-2.634-88,17.234-127.068c14.175-27.873,45.435-44.84,76.219-45.373c17.458-0.302,32.966,9.376,48.942,15.791
				c18.623,7.477,37.921,14.281,58.17,15.05c19.385,0.736,38.486-4.073,57.657-7.033c26.064-4.024,52.952-4.609,78.61,1.494
				c25.657,6.104,50.078,19.255,67.007,39.478c22.49,26.866,30.391,62.606,31.491,96.873c0.868,27.033,0.701,54.614-5.824,81.025
				c-6.654,26.933-18.208,50.563-32.554,74.433"/>
		</g>
		<g>
			<path style="fill:#CAC7E2;" d="M395.164,194.972H289.658c-1.465,0-2.653-1.188-2.653-2.653V56.312
				c0-1.465,1.188-2.653,2.653-2.653h105.506c1.465,0,2.653,1.188,2.653,2.653v136.007
				C397.817,193.784,396.629,194.972,395.164,194.972z"/>
			<path style="fill:#EAE8FC;" d="M389.316,187.965h-93.811c-1.465,0-2.653-1.188-2.653-2.653V63.319
				c0-1.465,1.188-2.653,2.653-2.653h93.811c1.465,0,2.653,1.188,2.653,2.653v121.992
				C391.969,186.777,390.781,187.965,389.316,187.965z"/>
			<g style="opacity:0.37;">
				<path style="fill:#FFFFFF;" d="M292.853,145.18l99.116-81.674v-0.187c0-1.465-1.188-2.653-2.653-2.653h-24.128l-72.336,59.606
					V145.18z"/>
				<polygon style="fill:#FFFFFF;" points="292.853,164.095 391.969,82.421 391.969,74.738 292.853,156.412 				"/>
				<path style="fill:#FFFFFF;" d="M391.969,104.779l-98.924,81.515c0.391,0.978,1.343,1.671,2.46,1.671h25.738l70.725-58.279
					V104.779z"/>
				<polygon style="fill:#FFFFFF;" points="351.764,187.965 391.969,154.835 391.969,147.152 342.44,187.965 				"/>
			</g>
			<polygon style="fill:#CAC7E2;" points="391.969,121.885 344.842,121.885 344.842,60.667 339.98,60.667 339.98,121.885 
				292.853,121.885 292.853,126.746 339.98,126.746 339.98,187.965 344.842,187.965 344.842,126.746 391.969,126.746 			"/>
		</g>
		<ellipse style="fill:#645470;" cx="258.479" cy="424.773" rx="194.143" ry="21.567"/>
		<ellipse style="fill:#4F415B;" cx="258.479" cy="424.168" rx="171.509" ry="14.542"/>
		<g>
			<path style="opacity:0.28;fill:#D4B7B1;" d="M430.473,424.261c0,2.961-12.127,5.36-27.087,5.36c-14.96,0-27.087-2.4-27.087-5.36
				c0-2.96,12.127-5.36,27.087-5.36C418.346,418.901,430.473,421.301,430.473,424.261z"/>
			<g>
				<g>
					<g>
						<path style="fill:#C1B227;" d="M464.522,326.993c0.23,2.739-1.265,8.141-2.651,10.593c-1.549,2.74-4.341,4.838-7.491,5.266
							c-1.139,0.155-2.314,0.12-3.409,0.47c-3.785,1.21-4.859,6.185-8.089,8.501c-2.178,1.562-5.081,1.707-7.728,1.287
							c-2.647-0.42-5.198-1.341-7.852-1.71c-3.758-0.522-7.918,1.282-10.439,4.066c2.254-6.771,6.319-16.115,13.233-19.227
							c6.544-2.945,14.412-1.905,20.601-5.621c2.608-1.565,4.626-3.928,6.975-5.86c1.176-0.967,2.642-1.873,4.127-1.537
							C463.417,323.589,464.383,325.339,464.522,326.993z"/>
					</g>
					<g>
						<path style="fill:#B2A815;" d="M450.666,289.969c-1.922,6.809-1.198,13.036-1.517,19.936c-0.227,4.925-2.76,6.381-6.364,9.07
							c-4.306,3.212-6.628,7.524-11.709,9.825c-3.88,1.757-9.599,2.972-12.097,6.789c2.516-3.845,4.022-8.346,4.324-12.932
							c0.352-5.334-0.949-10.772,1.116-15.798c1.915-4.66,5.45-7.861,8.595-11.671c2.843-3.443,5.055-7.405,6.493-11.632
							c0.635-1.865,1.131-3.804,2.143-5.495c1.012-1.691,2.672-3.14,4.636-3.296c3.123-0.247,5.636,2.905,6,6.016
							C452.651,283.893,451.517,286.954,450.666,289.969z"/>
					</g>
					<g>
						<path style="fill:#C1B227;" d="M419.844,287.798c-1.381,1.328-2.384,3.307-3.971,4.334c-2.051,1.327-5.221,1.553-7.483,2.65
							c-2.776,1.345-5.341,3.292-6.928,5.938c0.099-4.638,0.047-9.288-0.209-13.921c-0.199-3.618-1.557-6.65-0.012-10.203
							c1.663-3.824,5.563-6.148,8.012-9.524c1.764-2.432,2.724-5.339,4.03-8.045c2.832-5.868,7.297-10.789,12.04-15.256
							c2.408-2.268,5.084-4.533,8.343-5.101c3.259-0.568,7.159,1.278,7.651,4.55c0.311,2.067-0.757,4.073-1.89,5.829
							c-3.369,5.219-7.805,10.22-8.382,16.405c-0.343,3.675,0.738,7.497-0.377,11.015
							C429.069,281.523,423.665,284.126,419.844,287.798z"/>
					</g>
					<g>
						<path style="fill:#C1B227;" d="M380.611,249.628c8.981,9.388,5.469,22.794,5.746,34.233c-1.77-2.696-4.98-3.359-7.408-5.255
							c-2.043-1.596-5.695-2.541-7.133-4.756c-0.603-0.929-0.801-2.06-1.271-3.064c-2.827-6.036-10.822-4.167-12.163-11.762
							c-0.993-5.627,1.276-10.748-1.392-16.182c-1.685-3.433-3.52-6.192-4.101-10.031c-0.843-5.572-3.612-16.958,6.131-13.992
							c5.507,1.676,9.814,6.79,11.111,12.318c0.928,3.958,1.411,8.201,3.808,11.485
							C375.739,245.087,378.347,247.261,380.611,249.628z"/>
					</g>
					<g>
						<path style="fill:#C1B227;" d="M381.15,316.821c0.446,3.642-1.825,6.665-1.786,10.404c0.031,2.941,0.76,5.83,1.621,8.642
							c-5.13-4.874-11.309-6.801-17.041-10.569c-2.741-1.802-5.082-4.625-5.226-7.902c-0.12-2.721,1.276-5.372,0.976-8.08
							c-0.313-2.822-2.379-5.092-3.563-7.673c-3.087-6.728,0.812-15.098-4.285-21.18c-0.952-1.136-2.21-2.085-2.732-3.473
							c-0.915-2.429,0.759-5.001,2.343-7.057c0.363-0.471,0.745-0.959,1.278-1.224c0.567-0.282,1.231-0.275,1.862-0.217
							c3.903,0.358,7.601,2.529,9.816,5.762c1.674,2.444,2.519,5.413,4.395,7.706c2.358,2.882,6.175,4.479,7.963,7.745
							c2.645,4.833-0.283,10.913,0.879,16.298c0.801,3.71,2.981,6.944,3.489,10.727C381.142,316.761,381.146,316.791,381.15,316.821
							z"/>
					</g>
					<g>
						<path style="fill:#B2A815;" d="M368.261,336.308c4.012,0.47,7.601,2.713,10.076,5.855c1.944,2.468,3.893,8.256,7.079,9.401
							c-3.742-1.344-8.259-1.327-12.109-0.544c-3.99,0.811-8.17,1.876-12.055,0.657c-4.324-1.357-7.316-5.252-9.637-9.144
							c-2.321-3.891-4.365-8.117-7.877-10.981c-1.976-1.612-5.781-3.301-5.94-6.256c-0.155-2.867,2.484-4.232,4.852-3.483
							c2.632,0.833,4.76,3.405,7.321,4.537c3.887,1.718,7.713,2.526,10.73,5.803c1.151,1.25,2.138,2.754,3.682,3.463
							C365.583,336.167,366.951,336.154,368.261,336.308z"/>
					</g>
					<g>
						<path style="fill:#B2A815;" d="M412.242,231.059c-0.57,6.935,4.055,12.363-0.106,19.194c-1.452,2.384-3.119,4.629-4.97,6.718
							c-1.743,1.968-3.878,3.602-5.583,5.583c-1.299,1.51-2.379,3.571-3.384,5.285c-1.111,1.895-3.19,5.298-3.193,7.547
							c0.006-5.066-0.666-10.132-1.983-15.024c-0.557-2.068-1.085-4.389-1.879-6.356c-0.829-2.051-2.729-3.67-3.718-5.674
							c-2.196-4.451-0.804-8.415,1.148-12.538c1.313-2.774,3.727-4.87,5.306-7.502c4.298-7.165,1.846-16,4.024-23.725
							c1.355-4.808,11.728-18.655,16.017-8.904c2.221,5.051,0.08,10.472,1.375,15.589c0.565,2.23,1.463,4.43,1.401,6.73
							C416.572,222.62,412.622,226.435,412.242,231.059z"/>
					</g>
					<g>
						<g>
							<g>
								<path style="fill:#756C1D;" d="M406.725,206.64c-0.087,0.022,0.114,0.595-0.026,1.669c-0.073,0.535-0.251,1.183-0.534,1.933
									c-0.281,0.753-0.678,1.601-1.057,2.618c-0.794,2.058-0.971,4.793-0.811,7.81c0.061,1.514,0.174,3.11,0.111,4.776
									c-0.064,1.658-0.29,3.407-1.013,5.022c-0.664,1.602-2.134,3.02-3.134,5.01c-1,1.936-1.622,4.176-1.687,6.537
									c-0.071,2.37,0.442,4.693,0.715,6.988c0.066,0.571,0.12,1.156,0.139,1.714c0.018,0.548-0.018,1.101-0.098,1.662
									c-0.158,1.123-0.504,2.272-0.84,3.5c-0.345,1.258-0.59,2.479-0.917,3.711c-0.316,1.235-0.651,2.482-1.004,3.743
									c-0.7,2.522-1.457,5.099-2.15,7.758c-0.69,2.658-1.337,5.401-1.751,8.238c-0.429,2.833-0.655,5.733-0.724,8.667
									c-0.086,5.868,0.477,11.573,1.352,16.993c0.866,5.426,1.978,10.593,3.055,15.493c1.065,4.906,2.143,9.537,2.87,13.906
									c0.741,4.371,1.219,8.477,1.42,12.233c0.229,3.751,0.012,7.149-0.051,10.182c-0.069,3.025,0.02,5.664,0.374,7.79
									c0.34,2.127,0.862,3.729,1.318,4.763c0.464,1.032,0.784,1.532,0.836,1.506c0.191-0.073-0.965-2.188-1.393-6.368
									c-0.229-2.081-0.206-4.653-0.033-7.648c0.166-2.986,0.486-6.45,0.343-10.284c-0.114-3.825-0.519-7.998-1.199-12.435
									c-0.668-4.446-1.694-9.119-2.708-14.026c-2.02-9.796-4.378-20.616-4.212-32.069c0.067-2.854,0.283-5.667,0.692-8.41
									c0.393-2.744,1.013-5.421,1.681-8.048c0.671-2.627,1.409-5.2,2.095-7.743c0.346-1.27,0.675-2.535,0.985-3.792
									c0.32-1.255,0.567-2.527,0.875-3.691c0.312-1.193,0.676-2.426,0.846-3.729c0.086-0.649,0.121-1.312,0.092-1.969
									c-0.03-0.646-0.096-1.254-0.174-1.862c-0.325-2.413-0.837-4.631-0.801-6.74c0.024-2.103,0.546-4.128,1.411-5.886
									c0.808-1.751,2.267-3.205,3.055-5.142c0.786-1.885,0.967-3.803,0.987-5.547c0.015-1.754-0.153-3.375-0.264-4.868
									c-0.261-2.983-0.196-5.533,0.438-7.501c0.306-0.991,0.653-1.877,0.885-2.676c0.235-0.798,0.363-1.508,0.375-2.088
									C407.111,207.166,406.764,206.617,406.725,206.64z"/>
							</g>
							<g>
								<path style="fill:#756C1D;" d="M444.781,286.286c-0.07,0.035,0.058,0.339,0.1,0.921c0.043,0.577-0.051,1.451-0.531,2.449
									c-0.455,1.012-1.364,2.117-2.149,3.667c-0.768,1.531-1.409,3.382-1.901,5.443c-1.024,4.117-1.47,9.092-4.152,13.762
									c-1.298,2.345-2.995,4.626-4.929,6.878c-1.929,2.259-4.082,4.499-6.203,6.921c-4.274,4.84-7.675,10.087-9.921,15.25
									c-2.273,5.156-3.33,10.209-3.56,14.451c-0.24,4.255,0.278,7.695,0.869,9.981c0.591,2.295,1.169,3.476,1.279,3.438
									c0.149-0.047-0.178-1.302-0.526-3.589c-0.349-2.281-0.638-5.632-0.231-9.721c0.398-4.083,1.549-8.889,3.828-13.818
									c2.255-4.936,5.578-9.973,9.746-14.692c2.08-2.377,4.235-4.638,6.193-6.97c1.962-2.326,3.718-4.744,5.054-7.263
									c1.335-2.514,2.204-5.142,2.698-7.591c0.509-2.448,0.806-4.714,1.217-6.733c0.392-2.023,0.908-3.794,1.537-5.277
									c0.62-1.462,1.459-2.667,1.86-3.842c0.424-1.168,0.397-2.186,0.213-2.811C445.088,286.504,444.829,286.256,444.781,286.286z
									"/>
							</g>
							<g>
								<path style="fill:#756C1D;" d="M358.818,281.035c-0.101,0.017-0.051,1.463,0.976,3.848c0.235,0.612,0.75,1.272,1.25,1.817
									c0.52,0.56,0.869,1.147,1.125,1.965c0.256,0.793,0.393,1.697,0.498,2.695c0.111,0.994,0.191,2.093,0.478,3.265
									c0.574,2.405,2.205,4.494,3.575,6.657c0.685,1.09,1.296,2.234,1.608,3.466c0.312,1.237,0.326,2.625,0.332,4.116
									c-0.005,3.031,0.351,6.257,1.179,9.474c0.425,1.617,0.907,3.209,1.615,4.834c0.701,1.606,1.603,3.126,2.594,4.58
									c2.006,2.905,4.187,5.436,6.137,8.006c1.975,2.551,3.811,5.052,5.42,7.519c3.243,4.913,5.578,9.706,6.701,13.975
									c1.188,4.258,1.191,7.895,0.895,10.348c-0.066,1.246-0.334,2.18-0.419,2.838c-0.104,0.654-0.129,1.011-0.064,1.032
									c0.065,0.021,0.216-0.296,0.447-0.926c0.211-0.634,0.606-1.56,0.795-2.828c0.543-2.49,0.764-6.31-0.301-10.802
									c-0.996-4.504-3.295-9.545-6.526-14.621c-1.603-2.551-3.44-5.118-5.413-7.709c-1.948-2.609-4.142-5.186-6.042-7.943
									c-0.944-1.385-1.784-2.799-2.428-4.261c-0.639-1.442-1.131-3.014-1.54-4.527c-0.812-3.058-1.187-6.091-1.232-9.015
									c-0.034-1.48-0.061-3.026-0.471-4.529c-0.418-1.505-1.161-2.785-1.912-3.914c-1.519-2.24-3.047-4.111-3.603-6.132
									c-0.565-2.02-0.563-4.174-1.284-5.969c-0.183-0.45-0.368-0.857-0.635-1.259c-0.264-0.392-0.567-0.703-0.842-0.978
									c-0.57-0.549-0.971-0.974-1.252-1.521C359.296,282.377,358.978,280.989,358.818,281.035z"/>
							</g>
							<g>
								<path style="fill:#756C1D;" d="M431.984,248.885c-0.126-0.07-0.734,0.831-1.872,2.407c-1.141,1.571-2.826,3.821-5.216,6.309
									c-0.598,0.627-1.235,1.242-1.93,1.922c-0.687,0.682-1.421,1.443-2.031,2.402c-0.606,0.955-1.032,2.024-1.366,3.111
									c-0.33,1.087-0.601,2.202-0.847,3.348c-0.493,2.288-0.873,4.678-1.501,7.044c-0.315,1.181-0.695,2.354-1.188,3.487
									c-0.453,1.077-1.169,1.949-2.099,2.91c-0.452,0.475-0.945,1.005-1.365,1.523c-0.418,0.508-0.833,1.013-1.246,1.515
									c-0.821,1.002-1.631,1.991-2.43,2.967c-1.593,1.943-3.177,3.835-4.545,5.729c-2.778,3.767-4.855,7.508-6.123,10.845
									c-1.287,3.336-1.705,6.243-1.777,8.223c-0.009,0.498-0.026,0.938-0.011,1.32c0.028,0.383,0.058,0.705,0.089,0.965
									c0.061,0.519,0.126,0.788,0.194,0.785c0.068-0.002,0.136-0.275,0.203-0.785c0.034-0.255,0.067-0.57,0.1-0.94
									c0.062-0.416,0.125-0.838,0.19-1.271c0.302-1.9,0.906-4.632,2.304-7.767c1.381-3.138,3.498-6.667,6.288-10.285
									c1.381-1.826,2.944-3.634,4.562-5.565c0.808-0.971,1.627-1.955,2.457-2.952c0.415-0.501,0.833-1.005,1.253-1.513
									c0.412-0.505,0.825-0.946,1.292-1.437c0.926-0.944,1.922-2.143,2.466-3.483c0.538-1.254,0.937-2.528,1.257-3.78
									c0.637-2.509,0.978-4.928,1.412-7.169c0.446-2.231,0.888-4.368,1.827-5.968c0.945-1.584,2.461-2.867,3.595-4.238
									c2.327-2.685,3.874-5.114,4.833-6.837C431.716,249.975,432.096,248.946,431.984,248.885z"/>
							</g>
							<g>
								<path style="fill:#756C1D;" d="M363.536,235.205c-0.111,0.119,0.617,0.741,1.297,2.186c0.328,0.722,0.612,1.654,0.632,2.759
									c0.057,1.112-0.25,2.468,0.049,4.132c0.14,0.824,0.478,1.634,0.902,2.417c0.454,0.758,0.997,1.488,1.604,2.17
									c1.207,1.366,2.624,2.617,3.782,4.07c0.58,0.724,1.055,1.512,1.352,2.357c0.324,0.826,0.397,1.797,0.502,2.88
									c0.09,1.065,0.264,2.327,0.736,3.46c0.444,1.143,1.086,2.188,1.798,3.151c1.433,1.926,3.079,3.475,4.411,5.065
									c0.668,0.794,1.267,1.598,1.732,2.428c0.235,0.414,0.436,0.834,0.593,1.258c0.082,0.204,0.153,0.441,0.206,0.621
									c0.047,0.179,0.075,0.366,0.09,0.571c0.032,0.408-0.001,0.9,0.029,1.451c0.03,0.573,0.144,1.089,0.269,1.576
									c0.259,0.973,0.602,1.835,0.886,2.646c0.569,1.673,1.202,3.242,1.883,4.607c1.355,2.751,2.929,4.727,4.167,5.905
									c1.251,1.176,2.097,1.62,2.17,1.526c0.096-0.118-0.576-0.762-1.602-2.043c-1.016-1.288-2.33-3.271-3.467-5.971
									c-0.575-1.351-1.099-2.855-1.596-4.535c-0.264-0.86-0.561-1.705-0.756-2.552c-0.094-0.422-0.169-0.844-0.176-1.235
									c-0.014-0.412,0.034-0.898,0.01-1.478c-0.013-0.288-0.049-0.596-0.121-0.904c-0.079-0.302-0.149-0.549-0.247-0.819
									c-0.183-0.53-0.416-1.042-0.683-1.533c-0.53-0.988-1.19-1.895-1.897-2.756c-1.416-1.723-3.021-3.259-4.313-5.005
									c-0.644-0.869-1.191-1.766-1.558-2.697c-0.389-0.927-0.53-1.862-0.638-2.935c-0.117-1.049-0.209-2.221-0.654-3.329
									c-0.411-1.101-1.035-2.054-1.709-2.856c-1.358-1.608-2.822-2.806-3.991-4.034c-0.588-0.61-1.087-1.228-1.506-1.85
									c-0.381-0.635-0.692-1.271-0.841-1.921c-0.333-1.279-0.156-2.665-0.313-3.918c-0.137-1.274-0.585-2.311-1.058-3.05
									C364.523,235.535,363.592,235.116,363.536,235.205z"/>
							</g>
							<g>
								<path style="fill:#756C1D;" d="M457.202,331.172c-0.11-0.094-0.739,0.479-1.881,1.471c-1.143,0.988-2.822,2.387-5.087,3.812
									c-2.262,1.435-5.115,2.832-8.501,3.87c-3.378,1.077-7.264,1.855-11.311,3.124c-2.021,0.636-3.979,1.403-5.777,2.364
									c-0.452,0.257-0.876,0.457-1.349,0.776c-0.452,0.304-0.86,0.643-1.23,0.985c-0.737,0.687-1.343,1.37-1.967,1.919
									c-2.841,2.358-4.881,5.182-6.1,7.695c-0.623,1.261-1.066,2.454-1.379,3.52c-0.307,1.059-0.526,2.014-0.544,2.831
									c-0.03,0.814,0.137,1.456,0.332,1.839c0.195,0.387,0.377,0.533,0.43,0.502c0.141-0.07-0.277-0.839,0.002-2.263
									c0.125-0.708,0.427-1.558,0.822-2.549c0.395-0.984,0.904-2.077,1.568-3.225c1.324-2.306,3.269-4.785,6.054-6.973
									c0.748-0.626,1.389-1.316,2.048-1.902c0.33-0.292,0.665-0.558,1.016-0.786c0.329-0.219,0.787-0.435,1.192-0.658
									c1.68-0.869,3.527-1.582,5.478-2.196c3.903-1.227,7.809-2.067,11.283-3.278c1.736-0.6,3.368-1.28,4.827-2.041
									c1.458-0.764,2.755-1.582,3.885-2.399c2.261-1.638,3.851-3.248,4.852-4.427C456.867,331.999,457.3,331.254,457.202,331.172z
									"/>
							</g>
							<g>
								<path style="fill:#756C1D;" d="M347.928,330.093c-0.003,0.078,0.209,0.114,0.507,0.311c0.304,0.188,0.664,0.569,1.096,1.168
									c0.436,0.603,1.071,1.362,1.913,2.067c0.837,0.721,1.874,1.425,3.039,2.121c2.319,1.421,5.192,2.699,7.374,5.308
									c0.593,0.648,1.246,1.369,2.053,1.997c0.793,0.622,1.66,1.135,2.536,1.598c1.736,0.919,3.606,1.749,5.531,2.489
									c3.853,1.486,7.559,2.612,10.677,4.087c1.559,0.73,2.981,1.538,4.203,2.417c1.219,0.885,2.25,1.854,3.092,2.82
									c1.691,1.941,2.548,3.886,2.943,5.272c0.397,1.394,0.449,2.23,0.607,2.23c0.112,0.007,0.329-0.838,0.145-2.386
									c-0.183-1.534-0.912-3.762-2.609-5.991c-0.844-1.11-1.905-2.224-3.189-3.247c-1.289-1.02-2.774-1.932-4.397-2.749
									c-3.247-1.645-6.997-2.837-10.759-4.292c-1.886-0.725-3.672-1.504-5.351-2.364c-0.831-0.425-1.604-0.869-2.281-1.378
									c-0.67-0.497-1.259-1.108-1.877-1.748c-0.604-0.641-1.282-1.29-1.985-1.839c-0.705-0.541-1.422-1-2.122-1.41
									c-1.406-0.806-2.738-1.43-3.915-2.034c-2.371-1.181-4.039-2.388-5.05-3.474c-0.534-0.542-1.082-0.93-1.521-1.029
									C348.153,329.928,347.923,330.039,347.928,330.093z"/>
							</g>
						</g>
						<path style="fill:#756C1D;" d="M422.56,269.784"/>
						<g>
							<path style="fill:#756C1D;" d="M428.85,340.299c-0.522,1.072-0.874,2.105-1.031,3.003c-0.328,1.817,0.106,2.933,0.176,2.899
								c0.127-0.016-0.102-1.115,0.336-2.787c0.212-0.833,0.593-1.792,1.128-2.807c0.531-1.016,1.237-2.077,1.958-3.225
								c0.438-0.696,0.844-1.39,1.198-2.08c-0.34,0.104-0.675,0.22-1.009,0.339c-0.256,0.443-0.528,0.89-0.815,1.348
								C430.076,338.127,429.37,339.223,428.85,340.299z"/>
							<path style="fill:#756C1D;" d="M440.423,348.509c-1.106-1.035-2.409-1.634-3.564-2.102c-1.162-0.464-2.229-0.803-3.07-1.161
								c-1.731-0.68-2.318-1.727-2.401-1.674c-0.037,0.016,0.03,0.322,0.366,0.757c0.328,0.438,0.954,0.957,1.812,1.389
								c0.857,0.439,1.905,0.828,3.03,1.317c1.117,0.491,2.327,1.08,3.32,2.012c0.964,0.909,1.722,2.154,2.926,2.798
								c0.012-0.009,0.026-0.015,0.038-0.023c0.194-0.139,0.38-0.289,0.56-0.446c-0.075-0.036-0.154-0.061-0.227-0.102
								C442.204,350.731,441.505,349.555,440.423,348.509z"/>
							<path style="fill:#756C1D;" d="M443.52,340.511c0.122-0.011,0.025-0.991,0.29-2.512c0.26-1.507,0.969-3.578,2.509-5.339
								c0.069-0.079,0.14-0.156,0.21-0.234c-0.413,0.127-0.829,0.245-1.249,0.353c-1.306,1.755-1.869,3.72-1.99,5.151
								C443.151,339.549,443.442,340.527,443.52,340.511z"/>
							<path style="fill:#756C1D;" d="M458.111,339.742c-2.263-0.831-4.305-1.792-5.9-2.176c-1.587-0.417-2.62-0.358-2.621-0.267
								c-0.009,0.112,0.975,0.238,2.469,0.768c1.508,0.496,3.464,1.51,5.805,2.372c0.402,0.142,0.803,0.263,1.202,0.372
								c0.234-0.182,0.465-0.368,0.684-0.569C459.215,340.108,458.667,339.939,458.111,339.742z"/>
							<path style="fill:#756C1D;" d="M454.102,334.237c0.101,0.023,0.396-0.876,0.813-2.338c0.423-1.46,0.958-3.486,1.713-5.658
								c0.095-0.287,0.195-0.568,0.298-0.844c-0.385,0.338-0.764,0.683-1.141,1.033c-0.682,2.051-1.104,3.949-1.379,5.347
								C454.118,333.276,454.004,334.214,454.102,334.237z"/>
						</g>
						<g>
							<path style="fill:#756C1D;" d="M425.331,310.236c0.001,0.772,0.031,1.608,0.286,2.447c0.554,1.694,1.766,2.796,2.523,3.912
								c0.398,0.553,0.695,1.112,0.861,1.668c0.174,0.552,0.191,1.116,0.199,1.635c-0.012,1.042-0.04,1.933,0.082,2.535
								c0.117,0.605,0.299,0.9,0.339,0.884c0.055-0.019-0.029-0.338-0.053-0.915c-0.03-0.582,0.073-1.411,0.154-2.49
								c0.024-0.538,0.042-1.156-0.13-1.81c-0.163-0.65-0.484-1.296-0.89-1.892c-0.79-1.203-1.923-2.306-2.378-3.743
								c-0.22-0.718-0.259-1.484-0.268-2.234c-0.002-0.701-0.005-1.427-0.007-2.199c-0.015-1.1-0.032-2.336-0.05-3.732
								c-0.004-0.159-0.008-0.304-0.012-0.453c-0.182,0.292-0.354,0.593-0.524,0.896c-0.035,1.211-0.067,2.305-0.095,3.284
								C425.354,308.803,425.342,309.532,425.331,310.236z"/>
							<path style="fill:#756C1D;" d="M442.614,316.291c-1.465-0.005-2.955-0.012-4.248,0.373c-1.288,0.361-2.34,0.933-3.18,1.445
								c-1.668,1.054-2.573,1.854-2.526,1.926c0.064,0.099,1.089-0.556,2.785-1.471c0.852-0.443,1.886-0.94,3.094-1.24
								c1.202-0.32,2.58-0.297,4.079-0.292c0.749-0.005,1.495-0.028,2.216-0.146c0.342-0.052,0.673-0.132,0.993-0.226
								c0.454-0.384,0.866-0.778,1.239-1.195c-0.157,0.068-0.311,0.137-0.474,0.201C445.431,316.15,444.095,316.305,442.614,316.291
								z"/>
							<path style="fill:#756C1D;" d="M434.256,299.697c0.212,0.717,0.59,1.375,0.99,2.002c0.403,0.627,0.815,1.204,1.142,1.784
								c0.326,0.577,0.564,1.168,0.731,1.757c0.337,1.179,0.403,2.311,0.436,3.257c0.026,1.901-0.048,3.1,0.069,3.108
								c0.087,0.007,0.345-1.158,0.454-3.103c0.034-0.971,0.025-2.154-0.3-3.438c-0.16-0.639-0.41-1.3-0.756-1.933
								c-0.345-0.631-0.763-1.224-1.153-1.831c-0.388-0.606-0.731-1.204-0.92-1.816c-0.206-0.601-0.21-1.235-0.261-1.888
								c-0.035-0.649-0.202-1.319-0.446-1.846c-0.217-0.497-0.446-0.922-0.628-1.322c-0.127,0.162-0.253,0.325-0.382,0.485
								c0.337,0.822,0.779,1.673,0.776,2.727C434.04,298.251,434.025,298.975,434.256,299.697z"/>
							<path style="fill:#756C1D;" d="M443.714,299.81c-0.976,0.442-1.628,1.144-2.133,1.686c-0.979,1.138-1.65,1.719-1.606,1.802
								c0.054,0.101,0.904-0.389,1.975-1.431c0.55-0.495,1.186-1.089,2.039-1.433c0.853-0.364,1.91-0.5,3.046-0.736
								c0.568-0.122,1.132-0.278,1.656-0.51c0.234-0.103,0.449-0.223,0.657-0.348c0.013-0.287,0.03-0.575,0.047-0.862
								c-0.723,0.458-1.54,0.849-2.515,0.996C445.792,299.203,444.673,299.361,443.714,299.81z"/>
							<path style="fill:#756C1D;" d="M442.98,290.116c0.254,1.386,0.213,2.281,0.331,2.289c0.084,0.012,0.317-0.885,0.187-2.361
								c-0.125-1.459-0.698-3.516-2.093-5.329c-0.68-0.875-1.33-1.664-1.39-2.49c-0.006-0.085,0.01-0.169,0.013-0.254
								c-0.144,0.444-0.289,0.888-0.436,1.33c0.295,0.685,0.79,1.292,1.224,1.86C442.117,286.854,442.729,288.739,442.98,290.116z"
								/>
						</g>
						<g>
							<path style="fill:#756C1D;" d="M407.575,276.466c0.028,0.933-0.096,1.865-0.199,2.781c-0.107,0.92-0.166,1.822-0.183,2.675
								c-0.036,1.709,0.075,3.239,0.196,4.516c0.263,2.553,0.547,4.11,0.64,4.102c0.11-0.01,0.009-1.594-0.119-4.139
								c-0.054-1.272-0.109-2.786-0.036-4.457c0.035-0.837,0.107-1.706,0.222-2.611c0.111-0.908,0.249-1.871,0.219-2.891
								c-0.016-1.018-0.308-2.046-0.762-2.88c-0.437-0.85-0.955-1.581-1.399-2.287c-0.105-0.165-0.205-0.329-0.301-0.491
								c-0.164,0.16-0.329,0.321-0.492,0.482c0.07,0.123,0.14,0.245,0.213,0.367C406.447,273.092,407.584,274.582,407.575,276.466z"
								/>
							<path style="fill:#756C1D;" d="M423.663,283.17c-1.606,0.611-3.336,0.611-4.896,0.78c-1.579,0.146-2.984,0.507-4.104,0.929
								c-1.125,0.418-1.978,0.887-2.541,1.244c-0.563,0.359-0.841,0.604-0.816,0.644c0.064,0.11,1.303-0.695,3.525-1.393
								c1.11-0.347,2.461-0.64,3.996-0.745c1.528-0.134,3.31-0.096,5.101-0.768c0.801-0.317,1.497-0.742,2.139-1.19
								c0.981-0.841,1.895-1.723,2.671-2.694c-0.293,0.161-0.583,0.336-0.871,0.526C426.537,281.37,425.26,282.547,423.663,283.17z"
								/>
							<path style="fill:#756C1D;" d="M416.232,256.526c-0.158,0.551-0.496,1.107-0.821,1.753c-0.335,0.629-0.602,1.466-0.51,2.309
								c0.081,0.84,0.408,1.625,0.773,2.364c0.368,0.743,0.765,1.419,1.054,2.098c0.297,0.68,0.519,1.365,0.69,2.03
								c0.342,1.332,0.482,2.581,0.579,3.631c0.173,2.105,0.227,3.428,0.34,3.425c0.09-0.001,0.223-1.313,0.182-3.456
								c-0.032-1.07-0.118-2.357-0.439-3.76c-0.161-0.7-0.38-1.428-0.687-2.156c-0.302-0.734-0.706-1.429-1.057-2.141
								c-0.352-0.71-0.64-1.415-0.714-2.106c-0.077-0.693,0.103-1.326,0.404-1.944c0.286-0.617,0.635-1.224,0.799-1.889
								c0.171-0.667,0.098-1.34-0.095-1.872c-0.124-0.339-0.275-0.622-0.433-0.882c-0.099,0.142-0.2,0.282-0.297,0.425
								c0.086,0.192,0.167,0.393,0.231,0.612C416.367,255.445,416.394,255.983,416.232,256.526z"/>
							<path style="fill:#756C1D;" d="M428.499,270.238c-1.774,0.47-3.57,0.847-5.046,1.666c-1.474,0.804-2.547,1.87-3.359,2.796
								c-0.811,0.934-1.379,1.75-1.762,2.318c-0.379,0.571-0.564,0.903-0.524,0.933c0.098,0.079,1.014-1.143,2.67-2.897
								c0.839-0.858,1.906-1.833,3.292-2.547c1.38-0.728,3.104-1.076,4.92-1.554c0.838-0.229,1.639-0.488,2.411-0.761
								c-0.014-0.25-0.029-0.5-0.043-0.751C430.24,269.725,429.385,269.996,428.499,270.238z"/>
							<path style="fill:#756C1D;" d="M423.637,248.503c-0.34,1.523-0.003,3.005,0.379,4.198c0.385,1.215,0.791,2.255,1.02,3.156
								c0.511,1.805,0.114,2.954,0.249,2.984c0.036,0.013,0.19-0.254,0.303-0.791c0.123-0.534,0.147-1.35-0.04-2.306
								c-0.173-0.957-0.54-2.048-0.877-3.237c-0.341-1.187-0.609-2.512-0.31-3.846c0.298-1.343,0.953-2.64,0.988-4.012
								c0.012-0.286-0.017-0.566-0.065-0.838c-0.206,0.195-0.409,0.395-0.614,0.591c-0.001,0.072,0.004,0.144-0.002,0.217
								C424.614,245.791,423.978,247.026,423.637,248.503z"/>
						</g>
						<g>
							<path style="fill:#756C1D;" d="M390.23,240.753c0.282,1.024,0.469,2.134,0.797,3.268c0.66,2.304,2.007,4.16,3.208,5.745
								c1.226,1.586,2.361,2.963,3.176,4.211c1.68,2.488,1.847,4.409,1.993,4.374c0.036-0.003,0.043-0.481-0.143-1.318
								c-0.169-0.842-0.627-2.016-1.406-3.333c-0.779-1.318-1.892-2.752-3.075-4.344c-1.163-1.595-2.429-3.389-3.042-5.542
								c-0.313-1.078-0.506-2.189-0.809-3.256c-0.284-1.067-0.751-2.096-1.34-2.932c-0.385-0.565-0.772-1.068-1.143-1.558
								c-0.105,0.224-0.208,0.448-0.308,0.671c0.297,0.41,0.598,0.826,0.884,1.263C389.564,238.813,389.961,239.721,390.23,240.753z
								"/>
							<path style="fill:#756C1D;" d="M409.381,242.984c-0.865,0.46-1.738,0.894-2.547,1.402c-0.811,0.508-1.537,1.093-2.164,1.704
								c-1.259,1.225-2.148,2.527-2.842,3.631c-0.686,1.112-1.17,2.046-1.493,2.697c-0.32,0.652-0.472,1.026-0.428,1.051
								c0.103,0.061,0.915-1.333,2.358-3.461c0.737-1.049,1.648-2.283,2.874-3.424c0.612-0.57,1.302-1.108,2.076-1.581
								c0.775-0.476,1.634-0.898,2.514-1.365c0.879-0.463,1.739-0.977,2.488-1.57c0.488-0.381,0.93-0.779,1.352-1.179
								c-0.048-0.27-0.098-0.54-0.153-0.811C412.277,241.156,410.975,242.189,409.381,242.984z"/>
							<path style="fill:#756C1D;" d="M398.404,230.467c0.44,1.32,0.556,2.582,0.759,3.663c0.189,1.078,0.519,1.945,0.877,2.461
								c0.355,0.519,0.652,0.711,0.68,0.681c0.044-0.041-0.174-0.298-0.43-0.824c-0.258-0.525-0.49-1.341-0.61-2.4
								c-0.132-1.047-0.197-2.373-0.625-3.782c-0.413-1.403-1.109-2.883-2.13-4.237c-0.458-0.589-0.939-1.124-1.354-1.652
								c-0.082,0.277-0.172,0.551-0.268,0.825c0.349,0.423,0.706,0.839,1.031,1.273
								C397.299,227.754,397.977,229.145,398.404,230.467z"/>
							<path style="fill:#756C1D;" d="M408.227,225.703c-1.132,0.771-1.901,1.732-2.464,2.553c-1.1,1.673-1.556,2.806-1.487,2.848
								c0.104,0.065,0.735-0.996,1.909-2.539c0.597-0.757,1.367-1.623,2.416-2.292c1.043-0.679,2.398-1.074,3.825-1.605
								c0.985-0.369,1.887-0.823,2.709-1.315c0.181-0.38,0.356-0.762,0.518-1.146c-1.022,0.659-2.188,1.281-3.49,1.769
								C410.785,224.492,409.361,224.923,408.227,225.703z"/>
							<path style="fill:#756C1D;" d="M400.253,202.485c0.048,0.788,0.145,1.608,0.374,2.408c0.418,1.617,1.12,3.025,1.738,4.286
								c0.634,1.257,1.213,2.369,1.646,3.326c0.879,1.91,1.124,3.197,1.241,3.178c0.086-0.005,0.019-1.366-0.758-3.378
								c-0.379-1.004-0.92-2.158-1.515-3.422c-0.58-1.268-1.244-2.653-1.636-4.177c-0.217-0.758-0.309-1.517-0.365-2.249
								c-0.034-0.736,0.005-1.483-0.069-2.214c-0.029-0.342-0.094-0.666-0.18-0.976c-0.182,0.259-0.358,0.516-0.527,0.773
								c0.01,0.087,0.023,0.172,0.028,0.261C400.28,200.967,400.229,201.696,400.253,202.485z"/>
						</g>
						<g>
							<path style="fill:#756C1D;" d="M383.898,255.388c0.318,0.825,0.651,1.621,0.563,2.45c-0.066,0.835-0.459,1.625-0.883,2.362
								c-0.428,0.74-0.909,1.446-1.283,2.186c-0.752,1.468-1.155,2.911-1.34,4.133c-0.183,1.226-0.17,2.231-0.104,2.915
								c0.067,0.685,0.17,1.054,0.214,1.049c0.132-0.007-0.074-1.524,0.405-3.871c0.243-1.166,0.681-2.529,1.428-3.908
								c0.367-0.687,0.849-1.37,1.306-2.138c0.447-0.764,0.907-1.637,0.995-2.666c0.026-0.262,0.019-0.517-0.011-0.764
								c-0.458-1.307-1.032-2.579-1.758-3.803C383.455,254.025,383.632,254.748,383.898,255.388z"/>
							<path style="fill:#756C1D;" d="M373.743,248.861c-0.191,1.479-0.199,2.852-0.024,3.981c0.341,2.29,1.333,3.431,1.383,3.368
								c0.114-0.056-0.674-1.244-0.864-3.43c-0.102-1.085-0.043-2.387,0.18-3.826c0.212-1.439,0.577-3.019,0.829-4.718
								c0.001-0.004,0.001-0.007,0.001-0.011c-0.22-0.247-0.436-0.494-0.643-0.746c-0.03,0.215-0.058,0.428-0.09,0.646
								C374.269,245.791,373.924,247.378,373.743,248.861z"/>
							<path style="fill:#756C1D;" d="M367.248,263.446c1.952-0.503,3.753-0.736,5.258-0.631c1.507,0.091,2.688,0.471,3.456,0.821
								c0.774,0.346,1.16,0.633,1.198,0.582c0.025-0.029-0.304-0.397-1.067-0.839c-0.755-0.443-1.971-0.922-3.543-1.086
								c-1.572-0.179-3.463,0.013-5.464,0.49c-1,0.232-2.041,0.536-3.097,0.826c-0.877,0.233-1.793,0.411-2.691,0.344
								c0.346,0.263,0.71,0.502,1.086,0.725c0.628-0.069,1.231-0.215,1.795-0.369C365.258,264.002,366.267,263.692,367.248,263.446z
								"/>
							<path style="fill:#756C1D;" d="M370.186,250.122c0.033-0.087-1.216-0.677-3.339-1.357c-2.119-0.678-5.135-1.409-8.516-1.774
								c-0.044-0.005-0.084-0.012-0.127-0.017c0.032,0.252,0.057,0.504,0.077,0.756c3.332,0.363,6.292,0.996,8.423,1.538
								C368.841,249.812,370.148,250.227,370.186,250.122z"/>
							<path style="fill:#756C1D;" d="M375.174,274.332c1.176-0.244,2.213-0.503,3.192-0.479c0.976,0.004,1.855,0.172,2.57,0.387
								c1.435,0.436,2.229,0.985,2.296,0.883c0.053-0.061-0.646-0.78-2.125-1.377c-0.735-0.293-1.667-0.531-2.727-0.574
								c-1.067-0.065-2.229,0.203-3.347,0.435c-1.121,0.218-2.21,0.273-3.208,0.256c0.163,0.248,0.355,0.479,0.568,0.699
								C373.267,274.575,374.202,274.519,375.174,274.332z"/>
						</g>
						<g>
							<path style="fill:#756C1D;" d="M377.606,311.522c-0.321,0.755-0.775,1.496-1.253,2.26c-0.478,0.765-0.969,1.519-1.351,2.313
								c-0.389,0.789-0.68,1.588-0.888,2.367c-0.406,1.561-0.488,3.025-0.397,4.231c0.089,1.21,0.331,2.164,0.547,2.8
								c0.215,0.638,0.402,0.963,0.442,0.948c0.13-0.038-0.416-1.434-0.466-3.772c-0.022-1.163,0.111-2.554,0.531-4.026
								c0.409-1.488,1.208-2.948,2.208-4.469c0.481-0.771,0.953-1.547,1.293-2.37c0.307-0.694,0.466-1.445,0.56-2.128
								c-0.163-0.411-0.318-0.825-0.467-1.241c-0.067,0.263-0.126,0.529-0.161,0.798
								C378.095,310.024,377.946,310.766,377.606,311.522z"/>
							<path style="fill:#756C1D;" d="M371.094,297.63c-0.796,1.212-1.526,2.356-1.903,3.44c-0.391,1.073-0.449,2.026-0.364,2.656
								c0.079,0.636,0.261,0.949,0.299,0.936c0.115-0.008-0.326-1.406,0.552-3.401c0.411-0.989,1.148-2.051,1.983-3.253
								c0.851-1.196,1.651-2.663,2.238-4.266c0.756-2.08,1.211-4.078,1.559-5.815c-0.173-0.191-0.344-0.383-0.529-0.565
								c-0.427,1.815-0.928,3.94-1.723,6.121C372.632,295.045,371.903,296.425,371.094,297.63z"/>
							<path style="fill:#756C1D;" d="M365.54,279.578c0.065,0.772,0.031,1.538-0.096,2.347c-0.272,1.603-0.684,3.166-0.972,4.578
								c-0.233,1.117-0.494,2.364-0.786,3.764c-0.426,2.148-0.64,3.488-0.541,3.511c0.1,0.023,0.494-1.276,1.05-3.393
								c0.35-1.387,0.661-2.622,0.941-3.729c0.326-1.415,0.751-2.929,1.039-4.619c0.135-0.841,0.166-1.716,0.087-2.513
								c-0.064-0.751-0.137-1.44-0.083-2.083c-0.167-0.341-0.337-0.681-0.51-1.019c-0.059,0.268-0.118,0.536-0.16,0.826
								C365.405,278.012,365.486,278.807,365.54,279.578z"/>
							<path style="fill:#756C1D;" d="M357.22,294.828c1.291,1.159,2.711,1.801,3.891,2.26c1.193,0.446,2.183,0.705,2.87,0.868
								c0.687,0.161,1.075,0.216,1.089,0.169c0.038-0.12-1.471-0.551-3.76-1.521c-1.126-0.507-2.461-1.178-3.628-2.277
								c-0.584-0.546-1.099-1.205-1.512-1.963c-0.411-0.764-0.722-1.665-1.278-2.524c-0.056-0.084-0.119-0.156-0.178-0.236
								c0.017,0.496,0.026,0.994,0.031,1.493c0.261,0.528,0.498,1.08,0.787,1.61C355.993,293.534,356.577,294.254,357.22,294.828z"
								/>
							<path style="fill:#756C1D;" d="M358.571,303.058c0.555,0.473,0.936,1.197,1.475,1.919c0.55,0.737,1.29,1.289,2.026,1.684
								c0.741,0.397,1.48,0.683,2.168,0.956c1.388,0.524,2.534,1.105,3.353,1.836c1.651,1.449,2.126,2.829,2.244,2.761
								c0.043-0.017-0.028-0.366-0.296-0.949c-0.274-0.576-0.761-1.389-1.595-2.199c-0.818-0.828-2.071-1.524-3.446-2.079
								c-1.352-0.584-2.905-1.16-3.864-2.457c-0.489-0.642-0.901-1.435-1.59-2.019c-0.677-0.575-1.445-0.892-2.145-1.16
								c-0.359-0.134-0.71-0.26-1.052-0.38c0.087,0.226,0.181,0.451,0.283,0.673c0.026,0.057,0.058,0.113,0.085,0.17
								c0.145,0.057,0.287,0.112,0.435,0.171C357.326,302.26,358.017,302.572,358.571,303.058z"/>
							<path style="fill:#756C1D;" d="M361.132,316.211c1.483,0.36,2.49,1.439,3.624,2.285c1.143,0.846,2.322,1.339,3.308,1.685
								c1.992,0.658,3.261,0.854,3.286,0.774c0.036-0.114-1.201-0.496-3.099-1.263c-0.939-0.398-2.04-0.921-3.082-1.739
								c-0.524-0.408-1.047-0.902-1.664-1.367c-0.601-0.475-1.379-0.869-2.162-1.084c-0.779-0.231-1.527-0.38-2.17-0.648
								c-0.07-0.028-0.13-0.064-0.197-0.095c-0.048,0.246-0.093,0.493-0.131,0.74c0.015,0.007,0.029,0.016,0.045,0.022
								C359.624,315.836,360.399,315.991,361.132,316.211z"/>
						</g>
						<g>
							<path style="fill:#756C1D;" d="M373.395,343.797c0.208,0.887,0.522,1.58,0.84,1.985c0.305,0.411,0.535,0.582,0.564,0.554
								c0.109-0.08-0.658-0.916-0.891-2.638c-0.136-0.85-0.154-1.89-0.21-3.065c-0.046-0.829-0.118-1.753-0.37-2.689
								c-0.31-0.167-0.62-0.331-0.94-0.475c0.413,1.051,0.542,2.174,0.63,3.21C373.111,341.836,373.183,342.908,373.395,343.797z"/>
							<path style="fill:#756C1D;" d="M361.353,337.151c0.831,1.81,1.568,2.803,1.644,2.756c0.099-0.056-0.47-1.135-1.161-2.957
								c-0.341-0.912-0.708-2.012-1.015-3.259c-0.151-0.569-0.264-1.173-0.377-1.802c-0.293-0.3-0.59-0.585-0.897-0.845
								c0.185,0.981,0.356,1.946,0.614,2.819C360.514,335.136,360.942,336.246,361.353,337.151z"/>
							<path style="fill:#756C1D;" d="M350.462,337.81c0.613-0.081,1.219-0.286,1.718-0.577c0.501-0.281,0.926-0.591,1.34-0.825
								c0.814-0.509,1.623-0.547,2.292-0.29c0.666,0.236,1.161,0.604,1.51,0.832c0.347,0.238,0.55,0.366,0.585,0.327
								c0.034-0.036-0.101-0.235-0.4-0.547c-0.304-0.303-0.758-0.754-1.501-1.098c-0.369-0.168-0.825-0.295-1.33-0.271
								c-0.507,0.017-1.02,0.202-1.483,0.448c-0.937,0.506-1.748,1.164-2.829,1.267c-0.686,0.088-1.369,0.03-2.025-0.075
								c0.169,0.264,0.336,0.53,0.5,0.799C349.356,337.86,349.897,337.881,350.462,337.81z"/>
							<path style="fill:#756C1D;" d="M361.82,346.535c0.767-0.297,1.466-0.713,2.035-1.129c0.574-0.408,1.099-0.743,1.635-0.867
								c1.088-0.249,2.048,0.095,2.672,0.274c0.634,0.205,0.992,0.325,1.013,0.276c0.019-0.044-0.293-0.251-0.909-0.544
								c-0.61-0.258-1.574-0.729-2.887-0.517c-0.654,0.115-1.278,0.483-1.867,0.87c-0.589,0.395-1.211,0.737-1.933,1
								c-1.437,0.529-3.16,0.671-4.96,0.575c-0.856-0.042-1.691-0.133-2.504-0.233c0.215,0.276,0.437,0.547,0.663,0.812
								c0.588,0.069,1.186,0.129,1.804,0.16C358.439,347.31,360.274,347.146,361.82,346.535z"/>
						</g>
					</g>
				</g>
				<g>
					<path style="fill:#FFC359;" d="M434.059,363.905c-0.009-0.452-0.051-0.937-0.15-1.393h-27.392h-6.262h-27.392
						c-0.099,0.456-0.141,0.941-0.15,1.393c-0.258,12.392,1.009,24.817,3.761,36.877c2.003,8.779,3.879,16.989,9.805,23.856
						c0.341,0.396,0.699,0.792,1.15,1.043c0.543,0.302,1.173,0.37,1.786,0.429c3.445,0.332,6.891,0.679,10.348,0.874
						c5.961,0.336,12.07-0.303,17.992-0.874c0.613-0.059,1.244-0.127,1.786-0.429c0.451-0.251,0.808-0.647,1.15-1.043
						c5.927-6.868,7.802-15.077,9.805-23.856C433.05,388.723,434.318,376.297,434.059,363.905z"/>
				</g>
				<path style="fill:#C48D33;" d="M372.7,369.009c0.024,1.901,0.094,3.801,0.19,5.7c20.336,1.264,40.723,1.584,60.991,0.046
					c0.096-1.898,0.166-3.796,0.191-5.696C413.684,370.649,393.159,370.305,372.7,369.009z"/>
				<path style="fill:#FCE19D;" d="M373.229,379.738c0.1,1.193,0.207,2.385,0.336,3.575c19.885,1.219,39.818,1.523,59.637,0.055
					c0.129-1.189,0.237-2.38,0.337-3.572C413.501,381.321,393.335,380.992,373.229,379.738z"/>
				<path style="fill:#C48D33;" d="M377.177,403.825c0.461,1.96,0.943,3.884,1.49,5.766c16.478,0.872,32.979,1.062,49.412,0.097
					c0.548-1.88,1.033-3.802,1.494-5.759C412.154,405.048,394.646,404.808,377.177,403.825z"/>
				<path style="fill:#FCE19D;" d="M380.391,414.692c0.491,1.237,1.039,2.447,1.652,3.632c14.216,0.673,28.444,0.814,42.626,0.116
					c0.618-1.184,1.173-2.392,1.667-3.628C411.055,415.646,395.712,415.47,380.391,414.692z"/>
			</g>
		</g>
		<g>
			<path style="opacity:0.28;fill:#D4B7B1;" d="M173.754,426.872c0,2.96-12.127,5.36-27.087,5.36c-14.96,0-27.087-2.4-27.087-5.36
				c0-2.961,12.127-5.36,27.087-5.36C161.627,421.511,173.754,423.911,173.754,426.872z"/>
			<g>
				<g>
					<path style="fill:#C1B227;" d="M204.564,333.45c-0.893,0.382-1.974,0.243-2.883-0.146c-1.03-0.441-1.91-1.16-2.853-1.764
						c-2.428-1.556-5.336-2.353-8.218-2.253c-0.533,0.018-1.118,0.091-1.483,0.479c-0.379,0.403-0.399,1.05-0.176,1.556
						c0.223,0.506,0.645,0.896,1.084,1.233c3.717,2.856,8.963,2.839,13.389,2.205c0.119-0.017-1.031,2.649-1.168,2.873
						c-0.469,0.771-0.879,1.519-1.485,2.199c-1.509,1.69-3.32,3.151-5.28,4.287c-1.869,1.084-4.238,1.536-6.205,0.641
						c-1.86-0.847-3.019-2.688-4.293-4.286c-1.36-1.705-2.958-3.219-4.733-4.486c-0.661-0.472-1.578-0.909-2.231-0.426
						c-0.609,0.451-0.526,1.382-0.3,2.106c1.389,4.443,5.556,7.385,9.67,9.562c-4.024,2.453-9.143,3.025-13.609,1.521
						c-2.85-0.96-6.569-2.91-7.89-5.748c-1.603-3.443-1.211-6.528,0.463-9.861c0.132-0.263,0.284-0.536,0.54-0.679
						c-1.629,0.037-2.966,0.012-4.457-0.732c-1.369-0.683-2.573-1.708-3.43-2.978c-1.699-2.52-2.025-5.819-1.233-8.753
						c0.792-2.934,2.618-5.516,4.855-7.574c2.023-1.861,3.801-3.196,6.39-4.118c-0.639,1.737-1.259,3.496-1.535,5.326
						c-0.541,3.583-0.371,9.03,2.943,11.289c0.91-1.727,0.096-3.801-0.338-5.705c-0.578-2.536-0.402-5.147,0.038-7.691
						c0.176-1.017,0.42-2.057,1.033-2.887c0.873-1.181,2.346-1.744,3.77-2.101c1.736-0.434,4.095-1.041,5.863-0.54
						c-1.373,2.11-2.767,4.302-3.191,6.783c-0.221,1.296-0.325,2.873-0.232,4.185c0.059,0.837,0.636,3.444,1.754,3.491
						c1.843,0.078,1.929-5.528,2.11-6.642c0.361-2.221,1.077-4.384,2.111-6.382c0.383-0.74,0.846-1.493,1.582-1.885
						c0.677-0.36,1.485-0.359,2.248-0.287c1.638,0.154,3.235,0.59,4.823,1.024c1.187,0.325,2.373,0.649,3.56,0.974
						c1.037,0.284,2.078,0.569,3.07,0.984c0.99,0.415,1.921,0.955,2.85,1.494c1.165,0.676,2.331,1.353,3.496,2.029
						c-1.54,1.147-2.619,2.894-2.956,4.784c-0.132,0.737-0.052,1.673,0.629,1.985c0.66,0.302,1.402-0.207,1.882-0.75
						c1.003-1.132,1.662-2.565,1.869-4.064c1.51,0.351,3.049,0.58,4.596,0.685c-0.557-0.038-0.931,3.8-0.983,4.164
						c-0.796,0.324-1.695,0.206-2.544,0.341c-0.848,0.135-1.773,0.715-1.755,1.574c0.032,1.505,2.853,0.575,3.719,0.33
						c0.473,1.881,0.365,4.278-2.113,4.143c-1.495-0.081-2.889-0.736-4.319-1.18c-1.43-0.444-3.062-0.661-4.363,0.079
						c-0.273,0.155-0.54,0.373-0.616,0.678c-0.123,0.498,0.305,0.955,0.724,1.251c2.699,1.908,6.292,1.764,9.59,1.542
						c-0.555,1.497-1.244,2.945-2.056,4.32c-0.363,0.615-0.771,1.236-1.376,1.617C204.799,333.339,204.683,333.399,204.564,333.45z"
						/>
				</g>
				<g>
					<path style="fill:#C1B227;" d="M73.354,295.121c0.79,0.565,1.877,0.66,2.847,0.475c1.1-0.21,2.114-0.724,3.165-1.112
						c2.705-1,5.716-1.156,8.51-0.441c0.517,0.132,1.072,0.328,1.346,0.786c0.284,0.475,0.165,1.111-0.161,1.557
						c-0.326,0.447-0.822,0.737-1.323,0.972c-4.242,1.993-9.363,0.854-13.551-0.714c-0.112-0.042,0.44,2.809,0.525,3.057
						c0.293,0.853,0.533,1.672,0.98,2.466c1.112,1.974,2.568,3.789,4.239,5.318c1.594,1.459,3.811,2.408,5.924,1.955
						c1.999-0.429,3.524-1.979,5.111-3.267c1.693-1.374,3.579-2.511,5.584-3.368c0.747-0.319,1.737-0.55,2.271,0.062
						c0.499,0.572,0.218,1.463-0.158,2.121c-2.308,4.042-7.009,6.023-11.493,7.269c3.405,3.258,8.283,4.913,12.968,4.401
						c2.99-0.327,7.04-1.436,8.938-3.925c2.303-3.02,2.581-6.117,1.66-9.731c-0.073-0.285-0.162-0.584-0.382-0.779
						c1.583,0.385,2.894,0.647,4.51,0.24c1.483-0.374,2.879-1.117,3.988-2.174c2.199-2.097,3.225-5.251,3.079-8.286
						c-0.146-3.035-1.376-5.949-3.12-8.438c-1.577-2.251-3.029-3.936-5.359-5.391c0.252,1.834,0.481,3.684,0.359,5.531
						c-0.239,3.616-1.571,8.9-5.292,10.397c-0.519-1.882,0.72-3.734,1.552-5.5c1.108-2.353,1.495-4.942,1.61-7.521
						c0.046-1.031,0.03-2.099-0.391-3.041c-0.6-1.34-1.918-2.206-3.233-2.859c-1.603-0.796-3.777-1.894-5.612-1.784
						c0.89,2.355,1.781,4.795,1.664,7.309c-0.061,1.313-0.298,2.876-0.67,4.138c-0.237,0.805-1.358,3.228-2.461,3.034
						c-1.817-0.318-0.7-5.813-0.638-6.94c0.123-2.247-0.113-4.513-0.696-6.686c-0.216-0.805-0.507-1.64-1.142-2.18
						c-0.584-0.496-1.374-0.668-2.134-0.762c-1.633-0.201-3.287-0.117-4.93-0.032c-1.229,0.063-2.457,0.126-3.686,0.189
						c-1.074,0.055-2.151,0.111-3.209,0.304c-1.056,0.193-2.081,0.521-3.104,0.849c-1.283,0.411-2.566,0.822-3.85,1.234
						c1.258,1.45,1.939,3.388,1.863,5.306c-0.029,0.748-0.307,1.646-1.039,1.804c-0.709,0.153-1.325-0.502-1.678-1.135
						c-0.737-1.321-1.074-2.862-0.955-4.37c-1.55,0.019-3.102-0.086-4.636-0.315c0.552,0.082,0.095,3.912,0.069,4.278
						c0.708,0.487,1.612,0.565,2.411,0.878c0.8,0.313,1.578,1.079,1.377,1.914c-0.353,1.463-2.91-0.049-3.703-0.474
						c-0.865,1.736-1.273,4.1,1.177,4.499c1.478,0.241,2.979-0.1,4.471-0.228c1.492-0.128,3.133,0.01,4.245,1.012
						c0.233,0.21,0.448,0.48,0.456,0.794c0.014,0.513-0.502,0.867-0.975,1.067c-3.045,1.286-6.524,0.375-9.698-0.548
						c0.221,1.581,0.584,3.143,1.083,4.66c0.223,0.679,0.488,1.373,0.997,1.874C73.148,294.962,73.249,295.045,73.354,295.121z"/>
				</g>
				<g>
					<path style="fill:#D1BE33;" d="M83.945,355.18c0.865-0.163,1.607-0.814,2.094-1.566c0.552-0.851,0.851-1.837,1.255-2.767
						c1.04-2.396,2.823-4.463,5.041-5.844c0.41-0.255,0.886-0.496,1.357-0.389c0.488,0.112,0.83,0.588,0.918,1.081
						c0.088,0.493-0.033,0.999-0.193,1.474c-1.352,4.024-5.305,6.661-8.953,8.419c-0.098,0.047,2.113,1.471,2.329,1.571
						c0.742,0.343,1.428,0.699,2.227,0.903c1.988,0.509,4.087,0.692,6.134,0.557c1.953-0.129,3.962-0.986,4.989-2.652
						c0.971-1.576,0.912-3.545,1.063-5.39c0.161-1.968,0.598-3.914,1.294-5.763c0.259-0.689,0.728-1.481,1.462-1.447
						c0.686,0.032,1.094,0.773,1.289,1.432c1.199,4.042-0.449,8.358-2.442,12.072c4.264-0.188,8.402-2.342,11.001-5.728
						c1.658-2.161,3.469-5.505,3.03-8.306c-0.533-3.398-2.386-5.519-5.327-7.181c-0.232-0.131-0.484-0.26-0.749-0.238
						c1.243-0.795,2.236-1.488,2.982-2.801c0.684-1.204,1.072-2.583,1.075-3.971c0.005-2.752-1.416-5.398-3.493-7.204
						c-2.077-1.806-4.754-2.825-7.474-3.243c-2.46-0.378-4.472-0.484-6.883,0.13c1.357,0.983,2.711,1.993,3.843,3.229
						c2.216,2.42,4.838,6.602,3.488,9.974c-1.556-0.839-1.992-2.81-2.626-4.46c-0.846-2.198-2.297-4.073-3.912-5.763
						c-0.646-0.676-1.355-1.334-2.235-1.648c-1.252-0.447-2.644-0.127-3.895,0.324c-1.525,0.55-3.604,1.284-4.681,2.554
						c2.098,0.893,4.252,1.837,5.824,3.489c0.821,0.862,1.695,1.996,2.288,3.03c0.378,0.659,1.261,2.91,0.444,3.511
						c-1.346,0.989-4.241-3.182-4.94-3.928c-1.393-1.488-3.023-2.752-4.81-3.732c-0.662-0.363-1.39-0.696-2.141-0.618
						c-0.691,0.071-1.298,0.48-1.835,0.919c-1.154,0.943-2.135,2.077-3.109,3.205c-0.728,0.843-1.456,1.686-2.185,2.53
						c-0.636,0.737-1.275,1.477-1.811,2.29c-0.535,0.812-0.962,1.688-1.388,2.562c-0.535,1.097-1.069,2.194-1.604,3.291
						c1.737,0.085,3.431,0.853,4.638,2.104c0.471,0.488,0.884,1.232,0.529,1.81c-0.344,0.56-1.158,0.552-1.794,0.387
						c-1.326-0.345-2.545-1.09-3.457-2.111c-0.959,1.026-2,1.976-3.11,2.836c0.399-0.31,2.619,2.387,2.842,2.634
						c0.762-0.158,1.379-0.701,2.085-1.028c0.706-0.327,1.694-0.357,2.114,0.298c0.736,1.148-1.855,1.873-2.629,2.126
						c0.594,1.653,1.885,3.401,3.681,2.048c1.083-0.816,1.8-2.012,2.651-3.068c0.851-1.056,1.968-2.043,3.321-2.144
						c0.284-0.021,0.595,0.008,0.806,0.199c0.344,0.312,0.253,0.872,0.087,1.306c-1.066,2.798-3.84,4.503-6.432,6.001
						c1.173,0.846,2.422,1.586,3.727,2.21c0.584,0.279,1.204,0.54,1.851,0.521C83.712,355.215,83.829,355.202,83.945,355.18z"/>
				</g>
				<g>
					<path style="fill:#D1BE33;" d="M181.356,273.295c-0.612,0.906-1.72,1.433-2.816,1.619c-1.243,0.211-2.514,0.067-3.774,0.07
						c-3.245,0.008-6.481,1.025-9.147,2.876c-0.493,0.342-1.002,0.767-1.111,1.358c-0.113,0.612,0.262,1.236,0.782,1.579
						c0.519,0.343,1.156,0.454,1.777,0.505c5.256,0.437,10.209-2.776,14.01-6.073c0.102-0.088,0.639,3.135,0.646,3.43
						c0.026,1.015,0.095,1.973-0.065,2.985c-0.398,2.519-1.221,5.004-2.383,7.272c-1.108,2.164-3.074,4.036-5.48,4.387
						c-2.276,0.333-4.494-0.704-6.673-1.439c-2.325-0.784-4.76-1.243-7.211-1.359c-0.913-0.043-2.047,0.102-2.37,0.956
						c-0.302,0.798,0.344,1.628,0.999,2.175c4.021,3.356,9.756,3.6,14.974,3.153c-2.312,4.772-6.806,8.433-11.947,9.732
						c-3.281,0.829-7.987,1.25-10.967-0.629c-3.615-2.28-5.123-5.437-5.571-9.61c-0.035-0.329-0.059-0.68,0.097-0.972
						c-1.518,1.028-2.798,1.819-4.662,2.024c-1.711,0.188-3.475-0.048-5.059-0.727c-3.142-1.348-5.462-4.271-6.5-7.529
						c-1.038-3.258-0.884-6.814-0.023-10.123c0.78-2.993,1.648-5.34,3.535-7.789c0.454,2.033,0.939,4.074,1.793,5.974
						c1.671,3.719,5.151,8.768,9.663,8.886c-0.191-2.188-2.226-3.655-3.796-5.191c-2.092-2.046-3.517-4.624-4.65-7.299
						c-0.453-1.069-0.856-2.202-0.781-3.36c0.106-1.649,1.156-3.079,2.286-4.284c1.378-1.469,3.239-3.48,5.217-4.084
						c-0.014,2.832,0.004,5.755,1.115,8.361c0.58,1.361,1.444,2.916,2.331,4.1c0.566,0.756,2.7,2.871,3.787,2.234
						c1.791-1.049-1.544-6.405-2.051-7.569c-1.012-2.321-1.653-4.803-1.892-7.324c-0.088-0.934-0.11-1.929,0.348-2.747
						c0.421-0.753,1.186-1.244,1.952-1.642c1.644-0.853,3.42-1.413,5.186-1.97c1.32-0.416,2.641-0.832,3.961-1.248
						c1.154-0.364,2.312-0.728,3.503-0.94c1.189-0.211,2.4-0.267,3.606-0.323c1.515-0.07,3.029-0.141,4.544-0.211
						c-0.758,2.023-0.714,4.334,0.118,6.327c0.325,0.778,0.97,1.615,1.804,1.494c0.808-0.117,1.2-1.049,1.324-1.856
						c0.258-1.682,0.009-3.439-0.708-4.983c1.643-0.589,3.238-1.309,4.765-2.153c-0.549,0.303,1.435,4.162,1.607,4.538
						c-0.555,0.791-1.478,1.228-2.198,1.873c-0.72,0.645-1.241,1.757-0.701,2.559c0.947,1.404,3.05-1.195,3.719-1.954
						c1.594,1.491,2.952,3.824,0.526,5.207c-1.464,0.834-3.181,1.065-4.805,1.516c-1.623,0.451-3.299,1.241-4.079,2.734
						c-0.164,0.313-0.284,0.682-0.169,1.017c0.187,0.546,0.87,0.717,1.447,0.742c3.716,0.16,7.027-2.166,10.011-4.385
						c0.388,1.755,0.618,3.544,0.688,5.339c0.031,0.804,0.024,1.639-0.316,2.368C181.511,273.047,181.438,273.174,181.356,273.295z"
						/>
				</g>
				<g>
					<path style="fill:#756C1D;" d="M197.715,320.555c-0.013-0.1-1.109-0.081-3.075,0.142c-1.966,0.217-4.801,0.654-8.25,1.491
						c-3.439,0.855-7.505,2.114-11.765,4.165c-2.131,1.019-4.281,2.288-6.382,3.794c-2.099,1.503-4.131,3.313-5.875,5.444
						c-3.545,4.228-5.82,9.024-7.281,13.503c-1.496,4.488-2.118,8.72-2.387,12.261c-0.243,3.55-0.113,6.432,0.132,8.401
						c0.239,1.97,0.504,3.036,0.599,3.023c0.297-0.026-0.376-4.376,0.395-11.32c0.406-3.455,1.129-7.565,2.657-11.895
						c1.493-4.323,3.733-8.92,7.108-12.944c1.66-2.03,3.572-3.747,5.576-5.209c2.002-1.46,4.059-2.713,6.111-3.738
						c4.1-2.063,8.05-3.412,11.401-4.392c3.361-0.964,6.137-1.566,8.058-1.969C196.662,320.902,197.731,320.674,197.715,320.555z"/>
				</g>
				<g>
					<path style="fill:#756C1D;" d="M171.093,262.69c-0.032-0.045-0.381,0.147-1.017,0.554c-0.645,0.397-1.556,1.038-2.7,1.906
						c-2.282,1.739-5.462,4.454-8.89,8.303c-3.418,3.845-7.086,8.829-10.215,14.898c-1.56,3.029-3.018,6.319-4.172,9.863
						c-1.157,3.54-2.006,7.323-2.487,11.242c-0.946,7.858-0.328,15.397,0.581,22.106c0.929,6.725,2.136,12.693,3.033,17.716
						c0.919,5.02,1.555,9.094,1.945,11.92c0.387,2.825,0.572,4.396,0.692,4.388c0.1-0.006,0.125-1.593-0.073-4.453
						c-0.201-2.859-0.67-6.984-1.448-12.041c-0.757-5.06-1.847-11.048-2.687-17.721c-0.822-6.662-1.377-14.069-0.455-21.723
						c0.469-3.82,1.284-7.498,2.39-10.953c1.103-3.455,2.498-6.682,3.994-9.676c2.997-5.988,6.501-10.947,9.757-14.827
						c3.265-3.883,6.287-6.69,8.429-8.561c1.074-0.934,1.918-1.65,2.498-2.129C170.84,263.014,171.125,262.735,171.093,262.69z"/>
				</g>
				<g>
					<path style="fill:#756C1D;" d="M81.693,341.201c0.067,0.241,4.02-0.825,10.436-2.255c3.21-0.692,7.05-1.446,11.344-1.857
						c4.28-0.383,9.071-0.458,13.846,0.704c4.775,1.127,8.922,3.537,11.852,6.597c1.469,1.522,2.704,3.137,3.689,4.752
						c0.988,1.617,1.741,3.232,2.371,4.733c1.241,3.013,1.995,5.573,2.565,7.325c0.56,1.757,0.906,2.724,1.015,2.696
						c0.105-0.027-0.036-1.042-0.413-2.855c-0.388-1.808-0.978-4.432-2.114-7.578c-0.578-1.567-1.296-3.268-2.281-4.993
						c-0.985-1.727-2.241-3.457-3.77-5.101c-1.535-1.637-3.39-3.147-5.518-4.367c-2.124-1.224-4.509-2.154-7.02-2.764
						c-5.042-1.223-10.001-1.087-14.373-0.615c-4.387,0.503-8.253,1.384-11.457,2.224c-3.206,0.842-5.754,1.665-7.505,2.259
						C82.611,340.705,81.663,341.097,81.693,341.201z"/>
				</g>
				<g>
					<path style="fill:#756C1D;" d="M142.428,368.842c0.091,0.006,0.283-1.48,0.332-4.187c0.03-2.706-0.222-6.64-1.154-11.404
						c-0.946-4.754-2.581-10.337-5.204-16.196c-1.291-2.939-2.853-5.925-4.585-8.956c-1.782-3.002-3.772-6.024-5.985-8.993
						c-4.473-5.905-9.376-11.016-14.196-15.231c-4.802-4.241-9.502-7.604-13.552-10.237c-4.069-2.611-7.498-4.496-9.914-5.7
						c-2.412-1.212-3.794-1.78-3.839-1.691c-0.055,0.108,1.231,0.863,3.539,2.237c2.313,1.365,5.633,3.387,9.586,6.095
						c3.935,2.731,8.512,6.15,13.199,10.397c4.704,4.22,9.5,9.288,13.898,15.092c2.177,2.919,4.142,5.885,5.914,8.827
						c1.721,2.971,3.286,5.894,4.592,8.767c2.653,5.729,4.37,11.178,5.441,15.825C142.632,362.824,142.091,368.851,142.428,368.842z
						"/>
				</g>
				<g>
					<path style="fill:#FE95A9;" d="M178.338,377.584c-1.209-5.282-2.419-10.564-3.628-15.846h-21.613h-12.204h-21.613
						c-1.209,5.282-2.419,10.564-3.628,15.846c-1.574,6.873-2.84,14.262-1.775,21.415c0.989,6.639,3.534,13.761,8.304,18.607
						c6.585,6.692,15.7,9.544,24.814,9.245c9.114,0.299,18.229-2.553,24.814-9.245c4.769-4.846,7.315-11.967,8.304-18.607
						C181.177,391.846,179.911,384.457,178.338,377.584z"/>
				</g>
				<path style="fill:#99485B;" d="M162.094,428.359h-30.199c-1.054,0-1.908-0.854-1.908-1.908v0c0-1.054,0.854-1.909,1.908-1.909
					h30.199c1.054,0,1.909,0.854,1.909,1.909v0C164.003,427.504,163.148,428.359,162.094,428.359z"/>
				<g>
					<path style="fill:#ED7E98;" d="M125.829,420.739c1.124,0.818,2.294,1.551,3.506,2.199c16.67-7.055,33.398-13.974,50.181-20.755
						c0.238-1.066,0.439-2.132,0.596-3.185c0.037-0.251,0.065-0.503,0.097-0.755C162.017,405.583,143.889,413.081,125.829,420.739z"
						/>
					<g>
						<path style="fill:#ED7E98;" d="M119.964,414.975c20.052-8.528,40.191-16.852,60.408-24.982
							c-0.212-2.915-0.664-5.817-1.228-8.656c-21.132,8.488-42.179,17.189-63.133,26.105
							C117.003,410.133,118.307,412.705,119.964,414.975z"/>
					</g>
					<g>
						<path style="fill:#ED7E98;" d="M176.46,369.384c-21.061,8.485-42.038,17.177-62.922,26.089
							c0.058,1.179,0.165,2.356,0.339,3.526c0.001,0.006,0.002,0.013,0.003,0.019c21.024-8.981,42.143-17.738,63.348-26.283
							C176.972,371.618,176.716,370.501,176.46,369.384z"/>
					</g>
					<g>
						<path style="fill:#ED7E98;" d="M174.785,362.066c-0.025-0.109-0.05-0.219-0.075-0.328h-21.613h-0.045
							c-12.476,5.114-24.922,10.302-37.336,15.566c-0.021,0.093-0.043,0.187-0.064,0.28c-0.721,3.149-1.374,6.407-1.772,9.701
							C134.096,378.673,154.401,370.273,174.785,362.066z"/>
					</g>
				</g>
				<path style="fill:#99485B;" d="M176.322,364.716h-58.674c-1.137,0-2.059-0.922-2.059-2.059v-0.984
					c0-1.137,0.922-2.059,2.059-2.059h58.674c1.137,0,2.059,0.922,2.059,2.059v0.984
					C178.381,363.795,177.459,364.716,176.322,364.716z"/>
				<g>
					<g>
						<path style="fill:#756C1D;" d="M191.065,308.201c-0.05-0.054-0.819,0.531-1.837,1.711c-1.017,1.174-2.232,2.987-3.118,5.203
							c-0.88,2.219-1.244,4.37-1.313,5.922c-0.072,1.556,0.084,2.51,0.157,2.505c0.211,0.015-0.004-3.868,1.751-8.19
							C188.403,311.007,191.228,308.335,191.065,308.201z"/>
					</g>
					<g>
						<path style="fill:#756C1D;" d="M195.585,339.195c0.022-0.113-1.223-0.347-3.1-1.082c-0.941-0.36-2.021-0.888-3.167-1.559
							c-1.132-0.694-2.323-1.545-3.465-2.569c-1.128-1.038-2.089-2.141-2.889-3.202c-0.778-1.076-1.407-2.1-1.855-3.002
							c-0.913-1.798-1.265-3.015-1.375-2.982c-0.043,0.012,0.013,0.324,0.151,0.882c0.064,0.281,0.158,0.621,0.304,1.002
							c0.142,0.383,0.282,0.83,0.51,1.293c0.406,0.949,1.011,2.025,1.785,3.152c0.796,1.11,1.774,2.262,2.937,3.331
							c1.176,1.055,2.416,1.919,3.598,2.604c1.196,0.662,2.326,1.161,3.309,1.474c0.482,0.183,0.941,0.279,1.336,0.384
							c0.394,0.109,0.741,0.169,1.027,0.207C195.261,339.213,195.577,339.238,195.585,339.195z"/>
					</g>
					<g>
						<path style="fill:#756C1D;" d="M174.814,309.404c-0.073-0.021-0.442,0.919-0.766,2.516c-0.326,1.593-0.553,3.855-0.373,6.342
							c0.187,2.487,0.744,4.691,1.3,6.219c0.555,1.532,1.058,2.408,1.127,2.376c0.197-0.07-1.454-3.76-1.788-8.642
							C173.928,313.337,175.019,309.444,174.814,309.404z"/>
					</g>
					<g>
						<path style="fill:#756C1D;" d="M164.132,316.917c-0.068-0.023-0.431,0.796-0.624,2.22c-0.2,1.415-0.134,3.451,0.557,5.545
							c0.675,2.103,1.865,3.764,2.872,4.777c0.493,0.522,1.016,0.87,1.427,0.976c0.412,0.112,0.647,0.03,0.642-0.005
							c0-0.052-0.222-0.062-0.553-0.228c-0.333-0.161-0.75-0.511-1.182-1.049c-0.886-1.055-1.954-2.667-2.598-4.673
							c-0.658-1.996-0.794-3.926-0.715-5.304C164.031,317.795,164.233,316.944,164.132,316.917z"/>
					</g>
					<g>
						<path style="fill:#756C1D;" d="M178.015,343.777c0.044-0.095-0.883-0.508-2.268-1.298c-0.683-0.405-1.468-0.938-2.149-1.703
							c-0.679-0.767-1.238-1.775-1.646-2.906c-0.835-2.271-0.923-4.511-0.787-6.089c0.135-1.588,0.432-2.551,0.331-2.582
							c-0.066-0.026-0.523,0.897-0.781,2.528c-0.258,1.615-0.243,3.973,0.635,6.361c0.429,1.189,1.045,2.269,1.812,3.084
							c0.772,0.816,1.636,1.336,2.369,1.703C177.015,343.588,177.985,343.843,178.015,343.777z"/>
					</g>
					<g>
						<path style="fill:#756C1D;" d="M197.51,311.751c-0.076-0.138-2.38,1.442-4.021,4.385c-1.667,2.927-1.826,5.717-1.668,5.71
							c0.195,0.038,0.628-2.597,2.227-5.396C195.613,313.633,197.643,311.898,197.51,311.751z"/>
					</g>
					<g>
						<path style="fill:#756C1D;" d="M201.587,329.863c0.009-0.102-0.785-0.21-2.012-0.549c-1.226-0.336-2.877-0.964-4.51-1.999
							c-1.629-1.043-2.897-2.272-3.72-3.241c-0.827-0.968-1.259-1.642-1.349-1.591c-0.065,0.034,0.231,0.797,0.992,1.871
							c0.755,1.072,2.031,2.415,3.732,3.502c1.705,1.082,3.461,1.669,4.752,1.9C200.768,329.991,201.584,329.937,201.587,329.863z"
							/>
					</g>
					<g>
						<path style="fill:#756C1D;" d="M161.261,254.074c-0.069-0.034-0.58,0.779-1.114,2.232c-0.532,1.445-1.047,3.57-0.966,5.956
							c0.078,2.387,0.779,4.484,1.525,5.843c0.742,1.373,1.444,2.049,1.498,2.001c0.084-0.062-0.479-0.827-1.091-2.201
							c-0.618-1.364-1.217-3.38-1.292-5.666c-0.077-2.286,0.347-4.346,0.757-5.795C160.991,254.991,161.352,254.115,161.261,254.074
							z"/>
					</g>
					<g>
						<path style="fill:#756C1D;" d="M178.64,270.466c-0.066-0.197-3.93,1.367-8.979,1.77c-5.046,0.45-9.117-0.441-9.149-0.236
							c-0.017,0.075,0.976,0.396,2.638,0.661c1.66,0.267,3.998,0.429,6.565,0.214c2.566-0.22,4.844-0.773,6.436-1.314
							C177.745,271.021,178.67,270.538,178.64,270.466z"/>
					</g>
					<g>
						<path style="fill:#756C1D;" d="M156.314,276.112c0.143-0.145-2.226-2.174-3.904-5.53c-1.72-3.335-1.96-6.445-2.161-6.415
							c-0.077,0.005-0.123,0.786,0.065,2.034c0.185,1.244,0.652,2.947,1.524,4.672c0.878,1.722,1.976,3.104,2.872,3.988
							C155.607,275.747,156.265,276.171,156.314,276.112z"/>
					</g>
					<g>
						<path style="fill:#756C1D;" d="M177.653,284.025c-0.041-0.102-1.393,0.434-3.652,1.007c-1.127,0.294-2.49,0.558-4.012,0.767
							c-1.526,0.187-3.213,0.307-4.986,0.286c-1.773-0.037-3.456-0.211-4.974-0.447c-1.515-0.259-2.868-0.567-3.985-0.896
							c-2.239-0.646-3.573-1.226-3.618-1.125c-0.018,0.04,0.299,0.22,0.891,0.511c0.588,0.3,1.474,0.663,2.592,1.046
							c1.116,0.39,2.482,0.75,4.019,1.045c1.541,0.273,3.256,0.469,5.065,0.506c1.809,0.021,3.53-0.119,5.079-0.342
							c1.546-0.246,2.923-0.561,4.051-0.915c1.129-0.346,2.026-0.681,2.624-0.962C177.347,284.235,177.67,284.065,177.653,284.025z"
							/>
					</g>
					<g>
						<path style="fill:#756C1D;" d="M151.028,285.326c0.034-0.106-1.002-0.397-2.426-1.311c-1.426-0.895-3.174-2.509-4.531-4.704
							c-1.358-2.197-2.13-4.442-2.643-6.068c-0.508-1.633-0.779-2.665-0.873-2.645c-0.079,0.016,0.035,1.081,0.436,2.766
							c0.407,1.675,1.126,4.004,2.535,6.286c1.41,2.284,3.3,3.926,4.843,4.754C149.916,285.253,151.018,285.39,151.028,285.326z"/>
					</g>
					<g>
						<path style="fill:#756C1D;" d="M147.612,290.758c-0.057-0.097-0.967,0.5-2.609,0.955c-1.62,0.462-4.052,0.678-6.495-0.161
							c-2.441-0.846-4.222-2.517-5.212-3.879c-1.012-1.371-1.36-2.402-1.465-2.361c-0.062,0.012,0.134,1.117,1.092,2.619
							c0.933,1.486,2.77,3.324,5.376,4.227c2.608,0.896,5.188,0.582,6.839-0.012C146.817,291.556,147.653,290.806,147.612,290.758z"
							/>
					</g>
					<g>
						<path style="fill:#756C1D;" d="M166.836,298.956c-0.027-0.111-1.28,0.262-3.343,0.307c-2.038,0.055-4.965-0.341-7.627-1.988
							c-2.654-1.655-4.259-4.159-4.937-6.072c-0.707-1.933-0.664-3.256-0.786-3.247c-0.038,0-0.086,0.325-0.074,0.918
							c0.01,0.592,0.121,1.453,0.43,2.474c0.593,2.029,2.219,4.72,5.028,6.471c2.811,1.739,5.895,2.071,7.987,1.897
							c1.059-0.081,1.901-0.256,2.468-0.422C166.548,299.128,166.847,298.995,166.836,298.956z"/>
					</g>
					<g>
						<path style="fill:#756C1D;" d="M157.534,302.415c-0.006-0.103-0.831-0.069-2.112-0.303c-1.273-0.226-3.014-0.793-4.598-1.964
							c-1.583-1.172-2.635-2.67-3.224-3.821c-0.598-1.156-0.807-1.955-0.907-1.93c-0.072,0.012-0.021,0.862,0.497,2.122
							c0.506,1.25,1.563,2.895,3.253,4.145c1.691,1.25,3.572,1.78,4.916,1.898C156.716,302.687,157.543,302.487,157.534,302.415z"/>
					</g>
					<g>
						<path style="fill:#756C1D;" d="M96.329,314.622c-0.005,0.037,0.272,0.122,0.792,0.172c0.519,0.054,1.288,0.028,2.205-0.188
							c1.822-0.407,4.25-1.817,5.745-4.33c1.477-2.512,1.677-5.227,1.517-7.056c-0.159-1.859-0.588-2.94-0.653-2.919
							c-0.106,0.023,0.161,1.134,0.2,2.941c0.042,1.786-0.23,4.353-1.616,6.707c-1.394,2.342-3.62,3.725-5.314,4.22
							C97.489,314.693,96.334,314.499,96.329,314.622z"/>
					</g>
					<g>
						<path style="fill:#756C1D;" d="M117.06,286.052c-0.112,0.028,0.252,1.167,0.241,3.042c0.003,1.852-0.505,4.494-2.139,6.822
							c-1.641,2.323-3.957,3.691-5.701,4.313c-1.761,0.643-2.957,0.684-2.946,0.799c0.002,0.04,0.3,0.072,0.839,0.045
							c0.539-0.025,1.319-0.137,2.25-0.414c1.848-0.533,4.34-1.908,6.082-4.374c1.735-2.471,2.189-5.281,2.068-7.2
							c-0.053-0.97-0.21-1.742-0.369-2.258C117.229,286.31,117.098,286.04,117.06,286.052z"/>
					</g>
					<g>
						<path style="fill:#756C1D;" d="M79.715,303.549c-0.005,0.044,0.304,0.112,0.872,0.197c0.284,0.047,0.633,0.091,1.041,0.104
							c0.407,0.018,0.873,0.06,1.387,0.033c1.03-0.003,2.256-0.128,3.597-0.381c1.336-0.277,2.783-0.695,4.239-1.303
							c1.448-0.625,2.754-1.376,3.881-2.145c1.113-0.79,2.054-1.585,2.771-2.324c0.376-0.351,0.669-0.716,0.939-1.022
							c0.274-0.303,0.485-0.585,0.648-0.822c0.333-0.468,0.5-0.738,0.464-0.764c-0.089-0.07-0.87,0.925-2.364,2.279
							c-0.742,0.682-1.689,1.421-2.79,2.164c-1.115,0.722-2.392,1.436-3.8,2.044c-1.415,0.591-2.816,1.014-4.11,1.315
							c-1.299,0.277-2.488,0.446-3.495,0.506C80.984,303.565,79.726,303.436,79.715,303.549z"/>
					</g>
					<g>
						<path style="fill:#756C1D;" d="M107.76,279.378c-0.108,0.014,0.005,1.049-0.089,2.702c-0.04,0.827-0.169,1.805-0.383,2.874
							c-0.235,1.065-0.569,2.219-1.042,3.385c-0.486,1.161-1.061,2.215-1.644,3.137c-0.6,0.91-1.198,1.695-1.752,2.311
							c-1.098,1.24-1.906,1.896-1.839,1.982c0.038,0.056,0.955-0.477,2.169-1.671c0.611-0.592,1.266-1.371,1.913-2.294
							c0.63-0.934,1.242-2.018,1.745-3.22c0.489-1.208,0.818-2.409,1.029-3.516c0.19-1.111,0.274-2.125,0.257-2.976
							C108.103,280.388,107.827,279.365,107.76,279.378z"/>
					</g>
					<g>
						<path style="fill:#756C1D;" d="M80.897,291.633c-0.033,0.159,2.189,0.596,4.892,0.081c2.707-0.495,4.622-1.704,4.534-1.84
							c-0.085-0.172-2.055,0.738-4.651,1.21C83.08,291.58,80.913,291.441,80.897,291.633z"/>
					</g>
					<g>
						<path style="fill:#756C1D;" d="M90.535,273.071c-0.087,0.065,0.536,0.937,1.299,2.466c0.766,1.524,1.598,3.751,1.969,6.325
							c0.36,2.576,0.181,4.946-0.13,6.623c-0.306,1.681-0.662,2.693-0.56,2.73c0.062,0.027,0.574-0.936,1.004-2.636
							c0.221-0.848,0.384-1.882,0.467-3.04c0.063-1.158,0.035-2.439-0.146-3.768c-0.196-1.327-0.526-2.565-0.909-3.66
							c-0.403-1.088-0.847-2.037-1.296-2.789C91.347,273.81,90.587,273.027,90.535,273.071z"/>
					</g>
					<g>
						<path style="fill:#756C1D;" d="M86.511,278.15c-0.169,0.105,1.258,2.118,1.696,5.029c0.484,2.903-0.249,5.26-0.057,5.307
							c0.074,0.025,0.361-0.529,0.586-1.506c0.227-0.973,0.342-2.38,0.104-3.901c-0.244-1.52-0.789-2.822-1.306-3.677
							C87.018,278.54,86.573,278.103,86.511,278.15z"/>
					</g>
					<g>
						<path style="fill:#756C1D;" d="M109.305,336.028c0.051,0.038,0.75-0.842,1.262-2.555c0.517-1.684,0.725-4.274-0.237-6.864
							c-0.968-2.588-2.819-4.41-4.312-5.346c-1.508-0.96-2.612-1.169-2.626-1.106c-0.042,0.104,0.989,0.464,2.368,1.479
							c1.371,0.994,3.06,2.765,3.969,5.196c0.904,2.434,0.785,4.878,0.398,6.527C109.749,335.03,109.206,335.976,109.305,336.028z"
							/>
					</g>
					<g>
						<path style="fill:#756C1D;" d="M111.518,350.961c0.048,0.044,0.757-0.662,1.339-2.138c0.581-1.439,0.931-3.781,0.002-6.074
							c-0.916-2.277-2.505-3.841-3.619-4.892c-1.147-1.042-1.918-1.605-1.974-1.544c-0.064,0.069,0.603,0.755,1.655,1.866
							c1.022,1.118,2.494,2.687,3.341,4.803c0.859,2.119,0.611,4.276,0.167,5.692C111.985,350.113,111.425,350.901,111.518,350.961z
							"/>
					</g>
					<g>
						<path style="fill:#756C1D;" d="M94.03,355.565c0.008,0.036,0.307,0.018,0.825-0.128c0.52-0.141,1.248-0.465,2.031-1.042
							c1.571-1.131,3.222-3.49,3.636-6.455c0.395-2.953-0.274-5.597-0.849-7.39c-0.595-1.808-1.116-2.861-1.189-2.833
							c-0.093,0.034,0.278,1.146,0.753,2.959c0.459,1.803,1.026,4.378,0.649,7.175c-0.39,2.786-1.874,5.034-3.283,6.188
							C95.189,355.23,93.988,355.444,94.03,355.565z"/>
					</g>
					<g>
						<path style="fill:#756C1D;" d="M94.085,322.681c-0.042,0.092,0.791,0.456,1.772,1.494c0.494,0.512,1.022,1.181,1.592,1.951
							c0.571,0.771,1.201,1.611,1.753,2.546c1.139,1.856,1.486,3.834,1.487,5.253c0.008,1.426-0.228,2.305-0.126,2.331
							c0.066,0.025,0.467-0.824,0.579-2.317c0.053-0.743,0.015-1.641-0.192-2.612c-0.207-0.969-0.613-2.005-1.196-2.981
							c-0.578-0.98-1.238-1.826-1.837-2.581c-0.601-0.757-1.186-1.423-1.746-1.917C95.05,322.838,94.101,322.606,94.085,322.681z"/>
					</g>
					<g>
						<path style="fill:#756C1D;" d="M80.579,330.761c0.004,0.106,0.884,0.102,2.263,0.322c1.377,0.215,3.251,0.729,5.122,1.734
							c1.866,1.013,3.325,2.296,4.261,3.329c0.941,1.031,1.42,1.769,1.511,1.714c0.062-0.033-0.282-0.863-1.165-2.007
							c-0.875-1.142-2.354-2.545-4.302-3.601c-1.953-1.049-3.937-1.515-5.371-1.619C81.456,330.523,80.573,330.691,80.579,330.761z"
							/>
					</g>
					<g>
						<path style="fill:#756C1D;" d="M75.523,337.511c0.033,0.2,3.054-0.475,6.745,0.093c3.697,0.524,6.394,2.043,6.484,1.861
							c0.039-0.067-0.581-0.538-1.71-1.084c-1.125-0.547-2.779-1.128-4.68-1.411c-1.901-0.278-3.653-0.2-4.888-0.002
							C76.235,337.165,75.505,337.435,75.523,337.511z"/>
					</g>
					<g>
						<path style="fill:#756C1D;" d="M84.594,349.224c0.055,0.063,0.639-0.324,1.474-1.088c0.828-0.763,1.914-1.93,2.758-3.471
							c0.846-1.542,1.194-3.142,1.196-4.29c0.013-1.156-0.238-1.836-0.31-1.819c-0.1,0.016-0.016,0.706-0.142,1.79
							c-0.116,1.081-0.508,2.554-1.307,4.013c-0.799,1.461-1.788,2.631-2.519,3.461C85.008,348.648,84.531,349.154,84.594,349.224z"
							/>
					</g>
				</g>
			</g>
		</g>
		<g>
			<path style="fill:#FE95A9;" d="M233.12,156.73l-1.441,12.289c0,0-5.592-3.05-21.802,0.065c-16.21,3.115-27.23,3.557-27.23,3.557
				l-7.009-45.703l-12.485-0.098c0,0-3.312,51.561,3.09,62.953c0,0,10.477,6.086,45.946,2.986c0,0-4.874,14.813,5.119,25.772
				c0,0,1.949,10.192,6.833,19.583c0,0-18.638,18.688-16.245,48.664c2.394,29.977,7.155,101.714,13.305,140.627
				c0,0-13.74-1.325-15.394,7.54h30.75l7.805-166.052l4.139-0.493c0,0,69.815,113.508,99.881,137.316l20.949-18.783
				c0,0-6.252-4.742-17.055,2.91l-51.422-98.368c-0.86-1.646-1.646-3.329-2.345-5.05c-3.615-8.899-17.814-41.227-36.964-50.975
				c0,0,1.969-11.321,1.65-18.644c0,0,7.613-12.562,4.785-25.456c0,0,43.424,6.289,52.515-3.218
				c2.924-17.968,0.769-46.727-1.667-59.088l-10.818-2.126l-7.009,44.48c0,0-21.402-0.386-25.504-1.113
				c-6.855-1.215-21.546-5.345-27.868-0.107l-1.846-14.614L233.12,156.73z"/>
			<g>
				<path style="fill:#594D65;" d="M263.195,216.827c0,0,7.039-11.624,5.059-23.986c-1.804-3.595-4.73-7.088-9.336-10.071
					l-2.212-15.153c-1.274,0.021-2.504,0.121-3.663,0.323l1.506,17.402c0,0-23.185-0.595-29.362-0.27v-17.324
					c-0.937-0.054-1.984-0.078-3.157-0.057l-1.114,14.475c0,0-5.346,3.55-9.002,10.636c0.094-0.008,0.182-0.014,0.276-0.022
					c0,0-4.873,14.813,5.119,25.772c0,0,0.216,1.128,0.682,2.972c8.336,1.4,23.231,2.139,45.238-3.021
					C263.229,217.927,263.219,217.365,263.195,216.827z"/>
				<path style="fill:#443B4F;" d="M247.812,216.509c-10.796,1.364-20.688,1.349-27.821,1.166c-1.268-0.033-2.445-0.071-3.531-0.11
					c0.174,0.213,0.361,0.423,0.546,0.634c0.926,0.061,1.909,0.119,2.959,0.173c7.145,0.361,17.094,0.489,27.973-0.885
					c6.047-0.758,11.698-1.966,16.662-3.369c0.153-0.327,0.313-0.678,0.478-1.056C259.965,214.477,254.106,215.719,247.812,216.509z
					"/>
			</g>
			<g>
				<path style="fill:#C48D33;" d="M300.855,291.496c-0.86-1.646-1.646-3.329-2.345-5.05c-3.076-7.573-13.818-32.104-28.752-45.257
					c-6.321,3.035-13.141,5.102-19.879,6.267c-9.222,1.596-18.828,1.936-27.996,0.114c-1.501-0.073-2.995-0.21-4.45-0.445
					c-5.073,8.314-10.944,22.037-9.536,39.674c2.045,25.609,5.818,81.692,10.708,121.754c6.311,1.184,12.801,1.403,19.166,0.585
					l6.591-140.223l4.14-0.494c0,0,47.097,76.568,80.584,117.12c3.2-1.602,6.21-3.654,9.148-5.716
					c2.142-1.503,4.29-3.045,6.344-4.688L300.855,291.496z"/>
			</g>
			<g>
				<path style="fill:#A57228;" d="M223.982,254.578c17.183,1.224,34.759-1.702,50.39-8.837c-1.489-1.621-3.026-3.154-4.613-4.553
					c-6.321,3.035-13.141,5.102-19.879,6.267c-9.222,1.596-18.828,1.936-27.996,0.114c-1.501-0.073-2.995-0.21-4.45-0.445
					c-1.083,1.774-2.199,3.81-3.276,6.062C217.368,253.947,220.693,254.344,223.982,254.578z"/>
			</g>
			<path style="fill:#FFC359;" d="M265.742,295.674c1.568,2.433,3.215,4.974,4.931,7.61c7.611-10.286,14.521-21.038,20.708-32.209
				c-1.452-2.789-3.081-5.736-4.872-8.71C280.38,273.937,273.43,285.072,265.742,295.674z"/>
			<path style="fill:#FFC359;" d="M274.572,309.245c0.653,0.994,1.314,1.999,1.982,3.012c7.292-9.768,13.94-19.979,19.931-30.571
				c-0.514-1.161-1.092-2.434-1.732-3.795C288.724,288.768,281.981,299.244,274.572,309.245z"/>
			<path style="fill:#FFC359;" d="M302.78,350.714c8.706-1.428,17.281-3.615,25.612-6.539l-4-7.652
				c-8.81,3.002-17.889,5.134-27.112,6.365C299.105,345.508,300.941,348.121,302.78,350.714z"/>
			<path style="fill:#FFC359;" d="M330.832,348.842c-8.021,2.83-16.228,5.086-24.565,6.754c0.725,1.009,1.451,2.013,2.175,3.012
				c8.134-1.702,16.14-3.951,23.975-6.735L330.832,348.842z"/>
			<path style="fill:#FFC359;" d="M241.525,329.281l0.454-9.663c-12.269-7.457-23.545-16.41-33.604-26.703
				c0.298,3.867,0.624,8.187,0.976,12.863C219.154,314.789,229.954,322.681,241.525,329.281z"/>
			<path style="fill:#FFC359;" d="M210.306,318.364c9.501,7.338,19.859,13.491,30.872,18.317l0.172-3.654
				c-11.259-5.052-21.801-11.53-31.395-19.284C210.069,315.26,210.186,316.796,210.306,318.364z"/>
			<path style="fill:#FFC359;" d="M215.981,384.677c8.033-3.125,15.862-6.725,23.448-10.79l0.47-10.008
				c-7.979,4.544-16.249,8.548-24.777,11.978C215.403,378.82,215.689,381.765,215.981,384.677z"/>
			<path style="fill:#FFC359;" d="M216.508,389.839c0.119,1.145,0.238,2.286,0.359,3.417c3.305-1.392,6.538-2.959,9.707-4.451
				c4.227-1.99,8.375-4.141,12.455-6.413l0.191-4.063c-3.784,2.15-7.62,4.208-11.525,6.15
				C224.117,386.258,220.369,388.176,216.508,389.839z"/>
			<path style="fill:#A57228;" d="M332.149,120.485l-2.116-0.258c-1.942-0.237-3.708,1.145-3.945,3.087l-0.217,1.782l-20.03-2.444
				l0.217-1.782c0.237-1.942-1.145-3.708-3.087-3.945l-2.116-0.258c-1.942-0.237-3.708,1.145-3.945,3.087l-1.159,9.499
				c-0.237,1.942,1.145,3.708,3.087,3.945l2.116,0.258c1.942,0.237,3.708-1.145,3.945-3.087l0.217-1.782l20.03,2.444l-0.217,1.782
				c-0.237,1.942,1.145,3.708,3.087,3.945l2.116,0.258c1.942,0.237,3.708-1.145,3.945-3.087l1.159-9.499
				C335.473,122.488,334.091,120.722,332.149,120.485z"/>
			<g>
				<path style="fill:#FE95A9;" d="M310.583,137.982c-3.246-1.933-0.622-9.474-1.042-12.717c-0.166-1.277-0.323-2.829,0.706-3.604
					c1.256-0.945,4.468-0.965,5.947-0.894c2.051,0.098,4.143,0.805,5.553,2.297c1.49,1.576,2.045,3.802,2.403,5.941
					c0.294,1.758,0.49,3.576,0.074,5.309c-0.222,0.926-0.626,1.822-1.265,2.528c-1.465,1.616-3.856,1.961-6.037,1.976
					c-1.468,0.01-2.937-0.083-4.392-0.279C311.856,138.449,311.167,138.33,310.583,137.982z"/>
			</g>
			<path style="fill:#A57228;" d="M149.416,120.485l2.116-0.258c1.942-0.237,3.708,1.145,3.945,3.087l0.217,1.782l20.03-2.444
				l-0.217-1.782c-0.237-1.942,1.145-3.708,3.087-3.945l2.116-0.258c1.942-0.237,3.708,1.145,3.945,3.087l1.159,9.499
				c0.237,1.942-1.145,3.708-3.087,3.945l-2.116,0.258c-1.942,0.237-3.708-1.145-3.945-3.087l-0.217-1.782l-20.03,2.444l0.217,1.782
				c0.237,1.942-1.145,3.708-3.087,3.945l-2.116,0.258c-1.942,0.237-3.708-1.145-3.945-3.087l-1.159-9.499
				C146.092,122.488,147.475,120.722,149.416,120.485z"/>
			<g>
				<path style="fill:#FE95A9;" d="M172.089,137.806c3.282-1.871,0.803-9.46,1.286-12.695c0.19-1.274,0.377-2.823-0.637-3.617
					c-1.238-0.969-4.449-1.05-5.928-1.008c-2.052,0.059-4.157,0.725-5.596,2.19c-1.519,1.548-2.118,3.762-2.516,5.894
					c-0.328,1.752-0.559,3.566-0.176,5.306c0.204,0.93,0.591,1.834,1.217,2.552c1.434,1.644,3.818,2.035,5.998,2.092
					c1.468,0.038,2.938-0.027,4.397-0.195C170.808,138.248,171.498,138.142,172.089,137.806z"/>
			</g>
			<g>
				<g>
					<path style="fill:#7F4955;" d="M235.229,98.537c-1.421-3.626-1.75-7.702-0.737-11.462c1.014-3.76,3.4-7.168,6.694-9.245
						c2.332-1.471,4.928-1.912,7.478-2.712c3.003-0.942,5.863-1.065,8.941-0.282c8.785,2.237,15.183,8.243,15.893,17.595
						c0.235,3.098-0.164,6.28-1.453,9.107c-1.289,2.827-3.51,5.276-6.339,6.56"/>
				</g>
				<g>
					<path style="fill:#C1B227;" d="M243.006,99.82c0.064-0.014-0.01-0.659-0.242-1.805c-0.235-1.146-0.634-2.793-1.264-4.791
						c-0.632-1.998-1.487-4.342-2.647-6.869c-0.599-1.264-1.273-2.575-2.298-3.798c-0.524-0.599-1.198-1.173-2.069-1.441
						c-0.834-0.267-1.898-0.22-2.686,0.411c-0.769,0.62-1.112,1.51-1.253,2.338c-0.147,0.838-0.088,1.675,0.074,2.451
						c0.335,1.56,1.025,2.891,1.7,4.109c1.377,2.444,3.009,4.396,4.522,5.864c1.524,1.463,2.916,2.461,3.916,3.074
						c1.002,0.615,1.603,0.867,1.632,0.817c0.103-0.153-2.197-1.405-5.053-4.382c-1.411-1.492-2.935-3.428-4.222-5.812
						c-0.635-1.193-1.268-2.479-1.548-3.863c-0.137-0.689-0.178-1.401-0.054-2.09c0.112-0.68,0.409-1.347,0.897-1.731
						c0.473-0.383,1.163-0.44,1.789-0.247c0.622,0.185,1.171,0.623,1.631,1.141c0.916,1.069,1.608,2.341,2.203,3.55
						c1.183,2.458,2.099,4.756,2.807,6.701C242.246,97.347,242.855,99.856,243.006,99.82z"/>
				</g>
				<g>
					<path style="fill:#C1B227;" d="M244.366,100.02c0.047,0.041,0.586-0.459,1.466-1.454c0.871-1,2.09-2.496,3.376-4.504
						c1.282-2.005,2.645-4.532,3.619-7.558c0.283-0.781,0.374-1.631,0.45-2.456c0.067-0.835,0.087-1.689,0.044-2.561
						c-0.043-0.872-0.139-1.764-0.388-2.668c-0.129-0.451-0.288-0.909-0.569-1.351c-0.266-0.433-0.735-0.885-1.357-1.005
						c-0.619-0.121-1.174,0.079-1.613,0.308c-0.456,0.231-0.818,0.537-1.176,0.836c-0.677,0.606-1.286,1.264-1.827,1.953
						c-1.088,1.377-1.894,2.875-2.483,4.36c-1.182,2.983-1.484,5.891-1.468,8.273c0.015,2.395,0.324,4.306,0.577,5.608
						c0.264,1.302,0.485,2.004,0.548,1.991c0.071-0.014-0.023-0.741-0.168-2.05c-0.136-1.308-0.334-3.205-0.26-5.54
						c0.072-2.326,0.44-5.115,1.612-7.94c0.585-1.407,1.367-2.816,2.399-4.102c0.514-0.643,1.087-1.256,1.721-1.819
						c0.601-0.528,1.372-1.03,1.943-0.912c0.558,0.083,0.973,0.884,1.178,1.656c0.221,0.788,0.321,1.628,0.367,2.451
						c0.046,0.826,0.035,1.645-0.019,2.44c-0.065,0.8-0.135,1.561-0.378,2.257c-0.896,2.944-2.161,5.447-3.346,7.463
						C246.205,97.723,244.228,99.909,244.366,100.02z"/>
				</g>
				<g>
					<path style="fill:#92545F;" d="M210.362,131.644c-0.949-4.556-1.317-9.242-1.092-13.894c0.298-6.147,1.542-13.227,6.385-17.183
						c4.382-3.58,10.383-5.032,15.799-3.523c1.662-1.811,3.979-2.84,6.336-3.318c5.097-1.033,10.479-0.329,15.306,1.643
						c3.901,1.594,9.977,4.855,11.678,9.097c0.803,2.002,1.825,3.94,2.589,5.919c0.927,2.401,1.124,5.469,1.385,8.023
						c0.544,5.313,0.382,10.704-0.495,15.963"/>
				</g>
				<g>
					<path style="fill:#EA7A95;" d="M262.766,129.44c1.664-1.306,4.066-1.351,6.035-0.58c2.958,1.159,5.139,4.089,5.401,7.254
						c0.262,3.166-1.409,6.414-4.136,8.043c-2.232,1.333-4.988,1.58-7.552,1.15"/>
				</g>
				<g>
					<path style="fill:#EA7A95;" d="M214.253,131.623c-1.774-1.152-4.171-0.981-6.063-0.036c-2.842,1.42-4.751,4.534-4.728,7.71
						c0.023,3.177,1.979,6.262,4.842,7.639c2.343,1.127,5.11,1.126,7.625,0.467"/>
				</g>
				<g>
					<path style="fill:#FE95A9;" d="M259.934,113.138c-5.784-12.222-20.545-14.755-31.907-10.076
						c-5.42,2.232-10.074,6.399-12.153,12.058c-3.36,9.145-1.327,19.506-0.715,28.956c1.472,22.724,39.213,24.793,46.842,5.25
						c0.918-2.351,1.309-4.887,1.245-7.414C263.008,132.446,264.102,121.945,259.934,113.138z"/>
				</g>
				<g>
					<g>
						<g>
							<path style="fill:#8E4657;" d="M265.857,143.164c0.126-0.059-0.172-0.813-0.375-2.061c-0.209-1.239-0.258-3.013,0.314-4.825
								c0.573-1.813,1.633-3.236,2.515-4.13c0.883-0.905,1.561-1.35,1.491-1.471c-0.048-0.097-0.858,0.156-1.919,0.999
								c-1.054,0.827-2.313,2.327-2.947,4.331c-0.633,2.004-0.464,3.956-0.076,5.238
								C265.244,142.544,265.762,143.216,265.857,143.164z"/>
						</g>
						<g>
							<path style="fill:#8E4657;" d="M268.033,141.145c0.107,0.043,0.38-0.283,0.53-0.935c0.152-0.641,0.127-1.625-0.357-2.559
								c-0.486-0.933-1.277-1.519-1.888-1.764c-0.62-0.253-1.043-0.217-1.07-0.105c-0.08,0.237,1.38,0.768,2.158,2.284
								C268.198,139.575,267.793,141.074,268.033,141.145z"/>
						</g>
						<g>
							<path style="fill:#8E4657;" d="M212.408,145.569c0.099,0.043,0.555-0.673,0.821-2.002c0.271-1.312,0.264-3.271-0.547-5.21
								c-0.811-1.939-2.2-3.32-3.324-4.049c-1.133-0.744-1.962-0.923-2.001-0.822c-0.058,0.127,0.656,0.509,1.617,1.331
								c0.959,0.811,2.142,2.134,2.876,3.887c0.732,1.754,0.843,3.525,0.746,4.778C212.506,144.744,212.276,145.522,212.408,145.569
								z"/>
						</g>
						<g>
							<path style="fill:#8E4657;" d="M210.059,143.754c0.233-0.092-0.305-1.549,0.348-3.123c0.639-1.579,2.045-2.239,1.944-2.469
								c-0.037-0.11-0.461-0.107-1.056,0.2c-0.587,0.298-1.323,0.953-1.722,1.926c-0.398,0.973-0.334,1.956-0.126,2.581
								C209.655,143.507,209.956,143.807,210.059,143.754z"/>
						</g>
					</g>
					<g>
						<path style="fill:#8E4657;" d="M226.54,135.705c0.272-0.012,0.434-1.331,0.361-2.946c-0.073-1.615-0.352-2.914-0.624-2.902
							c-0.272,0.012-0.434,1.331-0.361,2.946C225.988,134.418,226.268,135.717,226.54,135.705z"/>
					</g>
					<g>
						<path style="fill:#8E4657;" d="M243.984,134.92c0.272-0.012,0.434-1.331,0.361-2.946c-0.073-1.615-0.352-2.914-0.624-2.902
							c-0.272,0.012-0.434,1.331-0.361,2.946C243.432,133.633,243.712,134.932,243.984,134.92z"/>
					</g>
					<g>
						<path style="fill:#8E4657;" d="M235.719,137.331c-0.01-0.065-0.273-0.069-0.724-0.106c-0.444-0.044-1.109-0.116-1.751-0.503
							c-0.608-0.354-1.226-1.201-1.013-2.048c0.095-0.423,0.401-0.829,0.799-1.237c0.395-0.413,0.885-0.821,1.304-1.403
							c0.439-0.559,0.641-1.418,0.478-2.09c-0.141-0.681-0.428-1.213-0.701-1.716c-0.566-1.002-1.258-1.783-1.899-2.353
							c-1.303-1.141-2.349-1.452-2.387-1.359c-0.072,0.127,0.838,0.635,1.942,1.816c0.546,0.591,1.134,1.354,1.613,2.291
							c0.234,0.468,0.477,0.982,0.564,1.482c0.091,0.503-0.015,0.955-0.346,1.409c-0.321,0.454-0.783,0.859-1.208,1.316
							c-0.421,0.451-0.845,1.003-0.971,1.672c-0.143,0.67,0.07,1.315,0.376,1.777c0.31,0.47,0.727,0.803,1.148,1.005
							c0.845,0.396,1.592,0.352,2.063,0.292C235.485,137.504,235.729,137.389,235.719,137.331z"/>
					</g>
					<g>
						<path style="fill:#8E4657;" d="M238.296,134.703c-0.179-0.172-0.664,0.04-1.081,0.474c-0.418,0.434-0.611,0.926-0.432,1.099
							c0.179,0.173,0.664-0.04,1.081-0.474C238.282,135.368,238.475,134.876,238.296,134.703z"/>
					</g>
					<g>
						<path style="fill:#8E4657;" d="M239.951,138.345c-0.13-0.026-0.289,0.329-0.618,0.803c-0.324,0.473-0.855,1.066-1.596,1.455
							c-0.742,0.387-1.532,0.485-2.106,0.48c-0.577,0-0.96-0.072-1.012,0.049c-0.05,0.103,0.264,0.402,0.924,0.582
							c0.645,0.181,1.657,0.185,2.612-0.313c0.954-0.5,1.528-1.333,1.748-1.966C240.13,138.792,240.064,138.363,239.951,138.345z"/>
					</g>
				</g>
				<g>
					<path style="fill:#8E4657;" d="M228.332,120.125c0.696-1.476-0.564-2.357-1.905-2.367c-1.687-0.014-3.424,0.597-4.808,1.54
						c-1.172,0.799-2.749,2.873-0.444,3.463c1.223,0.313,2.52,0.093,3.731-0.261C226.282,122.098,227.721,121.421,228.332,120.125z"
						/>
				</g>
				<g>
					<path style="fill:#8E4657;" d="M241.035,118.43c-0.826-1.408,0.35-2.398,1.685-2.529c1.679-0.165,3.464,0.287,4.927,1.102
						c1.239,0.69,2.996,2.615,0.754,3.409c-1.19,0.421-2.501,0.319-3.739,0.076C243.254,120.211,241.76,119.666,241.035,118.43z"/>
				</g>
				<path style="opacity:0.19;fill:#FE95A9;" d="M257.708,134.697c-4.768,0.215-8.459,4.254-8.245,9.022
					c0.215,4.768,4.254,8.459,9.022,8.245c0.878-0.04,1.719-0.211,2.507-0.49c0.377-0.685,0.718-1.397,1.01-2.146
					c0.918-2.351,1.309-4.887,1.245-7.414c-0.046-1.817-0.043-3.672-0.037-5.546C261.675,135.239,259.76,134.605,257.708,134.697z"
					/>
				<g style="opacity:0.19;">
					<path style="fill:#FE95A9;" d="M227.721,144.697c-0.215-4.768-4.254-8.459-9.022-8.245c-1.495,0.067-2.884,0.511-4.081,1.236
						c0.201,2.159,0.406,4.297,0.541,6.389c0.246,3.789,1.503,7,3.458,9.637c0.283,0.015,0.569,0.018,0.858,0.005
						C224.244,153.504,227.935,149.465,227.721,144.697z"/>
				</g>
				<g>
					<path style="fill:#92545F;" d="M220.034,105.505c0.29,4.086,2.897,7.929,6.587,9.708c2.287,1.103,5.34,1.301,7.104-0.526
						c1.455-1.507,1.548-3.826,1.555-5.921c0.533,3.606,3.653,6.816,7.296,6.959c3.643,0.143,7.17-3.263,6.718-6.88
						c-0.113,2.445,0.546,4.92,1.859,6.986c0.802,1.262,1.925,2.422,3.374,2.793c1.449,0.371,3.228-0.308,3.682-1.734
						c-1.047,3.522-0.382,7.511,1.75,10.503c0.457,0.642,1.003,1.259,1.727,1.573c0.723,0.314,1.659,0.249,2.192-0.332
						c0.408-0.445,0.508-1.085,0.572-1.685c0.432-4.021,0.102-8.122-0.968-12.021c-1.342-4.892-3.924-9.542-7.85-12.754
						c-3.926-3.212-9.277-4.841-14.221-3.707"/>
				</g>
			</g>
			<g>
				<path style="fill:#EA7A95;" d="M245.333,240.07c0.27-0.053,0.268-1.219,0.131-2.623c-0.141-1.404-0.367-2.548-0.642-2.546
					c-0.27,0-0.485,1.188-0.34,2.643C244.624,238.999,245.068,240.122,245.333,240.07z"/>
			</g>
		</g>
	</g>
</g>
</svg>
